<?xml version="1.0" encoding="utf-8"?>
<!-- Generator: Adobe Illustrator 23.1.0, SVG Export Plug-In . SVG Version: 6.00 Build 0)  -->
<svg version="1.1" xmlns="http://www.w3.org/2000/svg" xmlns:xlink="http://www.w3.org/1999/xlink" x="0px" y="0px"
	 viewBox="0 0 750 500" style="enable-background:new 0 0 750 500;" xml:space="preserve">
<style type="text/css">
	.st0{fill:#E0E0E0;}
	.st1{display:none;}
	.st2{display:inline;fill:#F5F5F5;}
	.st3{fill:#263238;}
	.st4{fill:#FFFFFF;}
	.st5{fill:#455A64;}
	.st6{fill:#FAFAFA;}
	.st7{fill:#E8505B;}
	.st8{opacity:0.3;}
	.st9{fill:#FFBE9D;}
	.st10{fill:#EB996E;}
	.st11{opacity:0.6;}
</style>
<g id="Background_Complete">
	<g>
		<g>
			<g>
				<g>
					<path class="st0" d="M592.3,197.2c0-0.1,1-0.2,2.1-0.2c0.2,0,0.5,0,0.7,0l-0.2,0.2c0-0.8,0.1-1.4,0.2-1.4
						c0.1,0,0.2,0.6,0.2,1.4l0,0.2l-0.2,0c-0.3,0-0.5,0-0.7,0C593.3,197.4,592.3,197.3,592.3,197.2z"/>
				</g>
			</g>
			<g>
				<g>
					<path class="st0" d="M586.6,197.2c0-0.1,0.6-0.2,1.4-0.2c0.8,0,1.4,0.1,1.4,0.2s-0.6,0.2-1.4,0.2
						C587.2,197.4,586.6,197.3,586.6,197.2z"/>
				</g>
			</g>
			<g>
				<g>
					<path class="st0" d="M580.9,197.2c0-0.1,0.6-0.2,1.4-0.2c0.8,0,1.4,0.1,1.4,0.2s-0.6,0.2-1.4,0.2
						C581.5,197.4,580.9,197.3,580.9,197.2z"/>
				</g>
			</g>
			<g>
				<g>
					<path class="st0" d="M575.1,197.2c0-0.1,0.6-0.2,1.4-0.2c0.8,0,1.4,0.1,1.4,0.2s-0.6,0.2-1.4,0.2
						C575.8,197.4,575.1,197.3,575.1,197.2z"/>
				</g>
			</g>
			<g>
				<g>
					<path class="st0" d="M569.4,197.2c0-0.1,0.6-0.2,1.4-0.2c0.8,0,1.4,0.1,1.4,0.2s-0.6,0.2-1.4,0.2
						C570,197.4,569.4,197.3,569.4,197.2z"/>
				</g>
			</g>
			<g>
				<g>
					<path class="st0" d="M563.7,197.2c0-0.1,0.6-0.2,1.4-0.2c0.8,0,1.4,0.1,1.4,0.2s-0.6,0.2-1.4,0.2
						C564.3,197.4,563.7,197.3,563.7,197.2z"/>
				</g>
			</g>
			<g>
				<g>
					<path class="st0" d="M557.9,197.2c0-0.1,0.6-0.2,1.4-0.2c0.8,0,1.4,0.1,1.4,0.2s-0.6,0.2-1.4,0.2
						C558.6,197.4,557.9,197.3,557.9,197.2z"/>
				</g>
			</g>
			<g>
				<g>
					<path class="st0" d="M552.2,197.2c0-0.1,0.6-0.2,1.4-0.2c0.8,0,1.4,0.1,1.4,0.2s-0.6,0.2-1.4,0.2
						C552.8,197.4,552.2,197.3,552.2,197.2z"/>
				</g>
			</g>
			<g>
				<g>
					<path class="st0" d="M546.4,197.2c0-0.1,0.6-0.2,1.4-0.2c0.8,0,1.4,0.1,1.4,0.2s-0.6,0.2-1.4,0.2
						C547.1,197.4,546.4,197.3,546.4,197.2z"/>
				</g>
			</g>
			<g>
				<g>
					<path class="st0" d="M540.7,197.2c0-0.1,0.6-0.2,1.4-0.2c0.8,0,1.4,0.1,1.4,0.2s-0.6,0.2-1.4,0.2
						C541.4,197.4,540.7,197.3,540.7,197.2z"/>
				</g>
			</g>
			<g>
				<g>
					<path class="st0" d="M535,197.2c0-0.1,0.6-0.2,1.4-0.2c0.8,0,1.4,0.1,1.4,0.2s-0.6,0.2-1.4,0.2
						C535.6,197.4,535,197.3,535,197.2z"/>
				</g>
			</g>
			<g>
				<g>
					<path class="st0" d="M529.2,197.2c0-0.1,0.6-0.2,1.4-0.2c0.8,0,1.4,0.1,1.4,0.2s-0.6,0.2-1.4,0.2
						C529.9,197.4,529.2,197.3,529.2,197.2z"/>
				</g>
			</g>
			<g>
				<g>
					<path class="st0" d="M523.5,197.2c0-0.1,0.6-0.2,1.4-0.2c0.8,0,1.4,0.1,1.4,0.2s-0.6,0.2-1.4,0.2
						C524.1,197.4,523.5,197.3,523.5,197.2z"/>
				</g>
			</g>
			<g>
				<g>
					<path class="st0" d="M517.8,197.2c0-0.1,0.6-0.2,1.4-0.2c0.8,0,1.4,0.1,1.4,0.2s-0.6,0.2-1.4,0.2
						C518.4,197.4,517.8,197.3,517.8,197.2z"/>
				</g>
			</g>
			<g>
				<g>
					<path class="st0" d="M512,197.2c0-0.1,0.6-0.2,1.4-0.2c0.8,0,1.4,0.1,1.4,0.2s-0.6,0.2-1.4,0.2
						C512.7,197.4,512,197.3,512,197.2z"/>
				</g>
			</g>
			<g>
				<g>
					<path class="st0" d="M506.3,197.2c0-0.1,0.6-0.2,1.4-0.2c0.8,0,1.4,0.1,1.4,0.2s-0.6,0.2-1.4,0.2
						C506.9,197.4,506.3,197.3,506.3,197.2z"/>
				</g>
			</g>
			<g>
				<g>
					<path class="st0" d="M500.6,197.2c0-0.1,0.6-0.2,1.4-0.2c0.8,0,1.4,0.1,1.4,0.2s-0.6,0.2-1.4,0.2
						C501.2,197.4,500.6,197.3,500.6,197.2z"/>
				</g>
			</g>
			<g>
				<g>
					<path class="st0" d="M494.8,197.2c0-0.1,0.6-0.2,1.4-0.2c0.8,0,1.4,0.1,1.4,0.2s-0.6,0.2-1.4,0.2
						C495.5,197.4,494.8,197.3,494.8,197.2z"/>
				</g>
			</g>
			<g>
				<g>
					<path class="st0" d="M493,193.2c0.1,0,0.2,0.6,0.2,1.4c0,0.8-0.1,1.4-0.2,1.4c-0.1,0-0.2-0.6-0.2-1.4
						C492.8,193.8,492.9,193.2,493,193.2z"/>
				</g>
			</g>
			<g>
				<g>
					<path class="st0" d="M493,187.5c0.1,0,0.2,0.6,0.2,1.4c0,0.8-0.1,1.4-0.2,1.4c-0.1,0-0.2-0.6-0.2-1.4
						C492.8,188.1,492.9,187.5,493,187.5z"/>
				</g>
			</g>
			<g>
				<g>
					<path class="st0" d="M493,181.7c0.1,0,0.2,0.6,0.2,1.4c0,0.8-0.1,1.4-0.2,1.4c-0.1,0-0.2-0.6-0.2-1.4
						C492.8,182.4,492.9,181.7,493,181.7z"/>
				</g>
			</g>
			<g>
				<g>
					<path class="st0" d="M493,176c0.1,0,0.2,0.6,0.2,1.4c0,0.8-0.1,1.4-0.2,1.4c-0.1,0-0.2-0.6-0.2-1.4
						C492.8,176.6,492.9,176,493,176z"/>
				</g>
			</g>
			<g>
				<g>
					<path class="st0" d="M493,170.3c0.1,0,0.2,0.6,0.2,1.4c0,0.8-0.1,1.4-0.2,1.4c-0.1,0-0.2-0.6-0.2-1.4
						C492.8,170.9,492.9,170.3,493,170.3z"/>
				</g>
			</g>
			<g>
				<g>
					<path class="st0" d="M493,164.5c0.1,0,0.2,0.6,0.2,1.4c0,0.8-0.1,1.4-0.2,1.4c-0.1,0-0.2-0.6-0.2-1.4
						C492.8,165.2,492.9,164.5,493,164.5z"/>
				</g>
			</g>
			<g>
				<g>
					<path class="st0" d="M493,158.8c0.1,0,0.2,0.6,0.2,1.4c0,0.8-0.1,1.4-0.2,1.4c-0.1,0-0.2-0.6-0.2-1.4
						C492.8,159.4,492.9,158.8,493,158.8z"/>
				</g>
			</g>
			<g>
				<g>
					<path class="st0" d="M493,153.1c0.1,0,0.2,0.6,0.2,1.4c0,0.8-0.1,1.4-0.2,1.4c-0.1,0-0.2-0.6-0.2-1.4
						C492.8,153.7,492.9,153.1,493,153.1z"/>
				</g>
			</g>
			<g>
				<g>
					<path class="st0" d="M493,147.3c0.1,0,0.2,0.6,0.2,1.4c0,0.8-0.1,1.4-0.2,1.4c-0.1,0-0.2-0.6-0.2-1.4
						C492.8,148,492.9,147.3,493,147.3z"/>
				</g>
			</g>
			<g>
				<g>
					<path class="st0" d="M493,141.6c0.1,0,0.2,0.6,0.2,1.4c0,0.8-0.1,1.4-0.2,1.4c-0.1,0-0.2-0.6-0.2-1.4
						C492.8,142.2,492.9,141.6,493,141.6z"/>
				</g>
			</g>
			<g>
				<g>
					<path class="st0" d="M493,135.9c0.1,0,0.2,0.6,0.2,1.4c0,0.8-0.1,1.4-0.2,1.4c-0.1,0-0.2-0.6-0.2-1.4
						C492.8,136.5,492.9,135.9,493,135.9z"/>
				</g>
			</g>
			<g>
				<g>
					<path class="st0" d="M493,130.1c0.1,0,0.2,0.6,0.2,1.4c0,0.8-0.1,1.4-0.2,1.4c-0.1,0-0.2-0.6-0.2-1.4
						C492.8,130.8,492.9,130.1,493,130.1z"/>
				</g>
			</g>
			<g>
				<g>
					<path class="st0" d="M493,124.4c0.1,0,0.2,0.6,0.2,1.4c0,0.8-0.1,1.4-0.2,1.4c-0.1,0-0.2-0.6-0.2-1.4
						C492.8,125,492.9,124.4,493,124.4z"/>
				</g>
			</g>
			<g>
				<g>
					<path class="st0" d="M493,118.6c0.1,0,0.2,0.6,0.2,1.4c0,0.8-0.1,1.4-0.2,1.4c-0.1,0-0.2-0.6-0.2-1.4
						C492.8,119.3,492.9,118.6,493,118.6z"/>
				</g>
			</g>
			<g>
				<g>
					<path class="st0" d="M493,112.9c0.1,0,0.2,0.6,0.2,1.4s-0.1,1.4-0.2,1.4c-0.1,0-0.2-0.6-0.2-1.4S492.9,112.9,493,112.9z"/>
				</g>
			</g>
			<g>
				<g>
					<path class="st0" d="M493,107.2c0.1,0,0.2,0.6,0.2,1.4s-0.1,1.4-0.2,1.4c-0.1,0-0.2-0.6-0.2-1.4S492.9,107.2,493,107.2z"/>
				</g>
			</g>
			<g>
				<g>
					<path class="st0" d="M493,101.4c0.1,0,0.2,0.6,0.2,1.4c0,0.8-0.1,1.4-0.2,1.4c-0.1,0-0.2-0.6-0.2-1.4
						C492.8,102.1,492.9,101.4,493,101.4z"/>
				</g>
			</g>
			<g>
				<g>
					<path class="st0" d="M493,95.7c0.1,0,0.2,0.6,0.2,1.4c0,0.8-0.1,1.4-0.2,1.4c-0.1,0-0.2-0.6-0.2-1.4
						C492.8,96.3,492.9,95.7,493,95.7z"/>
				</g>
			</g>
			<g>
				<g>
					<path class="st0" d="M498.1,95c0,0.1-0.6,0.2-1.4,0.2c-0.8,0-1.4-0.1-1.4-0.2c0-0.1,0.6-0.2,1.4-0.2
						C497.4,94.7,498.1,94.9,498.1,95z"/>
				</g>
			</g>
			<g>
				<g>
					<path class="st0" d="M503.8,95c0,0.1-0.6,0.2-1.4,0.2c-0.8,0-1.4-0.1-1.4-0.2c0-0.1,0.6-0.2,1.4-0.2
						C503.2,94.7,503.8,94.9,503.8,95z"/>
				</g>
			</g>
			<g>
				<g>
					<path class="st0" d="M509.5,95c0,0.1-0.6,0.2-1.4,0.2c-0.8,0-1.4-0.1-1.4-0.2c0-0.1,0.6-0.2,1.4-0.2
						C508.9,94.7,509.5,94.9,509.5,95z"/>
				</g>
			</g>
			<g>
				<g>
					<ellipse class="st0" cx="513.8" cy="95" rx="1.4" ry="0.2"/>
				</g>
			</g>
			<g>
				<g>
					<path class="st0" d="M521,95c0,0.1-0.6,0.2-1.4,0.2c-0.8,0-1.4-0.1-1.4-0.2c0-0.1,0.6-0.2,1.4-0.2C520.4,94.7,521,94.9,521,95z
						"/>
				</g>
			</g>
			<g>
				<g>
					<path class="st0" d="M526.7,95c0,0.1-0.6,0.2-1.4,0.2c-0.8,0-1.4-0.1-1.4-0.2c0-0.1,0.6-0.2,1.4-0.2
						C526.1,94.7,526.7,94.9,526.7,95z"/>
				</g>
			</g>
			<g>
				<g>
					<path class="st0" d="M532.5,95c0,0.1-0.6,0.2-1.4,0.2c-0.8,0-1.4-0.1-1.4-0.2c0-0.1,0.6-0.2,1.4-0.2
						C531.8,94.7,532.5,94.9,532.5,95z"/>
				</g>
			</g>
			<g>
				<g>
					<path class="st0" d="M538.2,95c0,0.1-0.6,0.2-1.4,0.2c-0.8,0-1.4-0.1-1.4-0.2c0-0.1,0.6-0.2,1.4-0.2
						C537.6,94.7,538.2,94.9,538.2,95z"/>
				</g>
			</g>
			<g>
				<g>
					<path class="st0" d="M543.9,95c0,0.1-0.6,0.2-1.4,0.2c-0.8,0-1.4-0.1-1.4-0.2c0-0.1,0.6-0.2,1.4-0.2
						C543.3,94.7,543.9,94.9,543.9,95z"/>
				</g>
			</g>
			<g>
				<g>
					<path class="st0" d="M549.7,95c0,0.1-0.6,0.2-1.4,0.2c-0.8,0-1.4-0.1-1.4-0.2c0-0.1,0.6-0.2,1.4-0.2
						C549,94.7,549.7,94.9,549.7,95z"/>
				</g>
			</g>
			<g>
				<g>
					<path class="st0" d="M555.4,95c0,0.1-0.6,0.2-1.4,0.2c-0.8,0-1.4-0.1-1.4-0.2c0-0.1,0.6-0.2,1.4-0.2
						C554.8,94.7,555.4,94.9,555.4,95z"/>
				</g>
			</g>
			<g>
				<g>
					<path class="st0" d="M561.2,95c0,0.1-0.6,0.2-1.4,0.2c-0.8,0-1.4-0.1-1.4-0.2c0-0.1,0.6-0.2,1.4-0.2
						C560.5,94.7,561.2,94.9,561.2,95z"/>
				</g>
			</g>
			<g>
				<g>
					<path class="st0" d="M566.9,95c0,0.1-0.6,0.2-1.4,0.2c-0.8,0-1.4-0.1-1.4-0.2c0-0.1,0.6-0.2,1.4-0.2
						C566.2,94.7,566.9,94.9,566.9,95z"/>
				</g>
			</g>
			<g>
				<g>
					<path class="st0" d="M572.6,95c0,0.1-0.6,0.2-1.4,0.2c-0.8,0-1.4-0.1-1.4-0.2c0-0.1,0.6-0.2,1.4-0.2
						C572,94.7,572.6,94.9,572.6,95z"/>
				</g>
			</g>
			<g>
				<g>
					<path class="st0" d="M578.4,95c0,0.1-0.6,0.2-1.4,0.2c-0.8,0-1.4-0.1-1.4-0.2c0-0.1,0.6-0.2,1.4-0.2
						C577.7,94.7,578.4,94.9,578.4,95z"/>
				</g>
			</g>
			<g>
				<g>
					<path class="st0" d="M584.1,95c0,0.1-0.6,0.2-1.4,0.2c-0.8,0-1.4-0.1-1.4-0.2c0-0.1,0.6-0.2,1.4-0.2
						C583.5,94.7,584.1,94.9,584.1,95z"/>
				</g>
			</g>
			<g>
				<g>
					<path class="st0" d="M589.8,95c0,0.1-0.6,0.2-1.4,0.2c-0.8,0-1.4-0.1-1.4-0.2c0-0.1,0.6-0.2,1.4-0.2
						C589.2,94.7,589.8,94.9,589.8,95z"/>
				</g>
			</g>
			<g>
				<g>
					<path class="st0" d="M595.2,95.4c-0.1,0-0.1-0.1-0.2-0.4l0.2,0.2c-0.3,0.1-0.6,0.1-1.1,0.1c-0.8,0-1.4-0.1-1.4-0.2
						c0-0.1,0.6-0.2,1.4-0.2c0.4,0,0.8,0,1.1,0.1l0.2,0l0,0.1C595.3,95.2,595.3,95.4,595.2,95.4z"/>
				</g>
			</g>
			<g>
				<g>
					<path class="st0" d="M595.2,101.1c-0.1,0-0.2-0.6-0.2-1.4c0-0.8,0.1-1.4,0.2-1.4c0.1,0,0.2,0.6,0.2,1.4
						C595.4,100.4,595.3,101.1,595.2,101.1z"/>
				</g>
			</g>
			<g>
				<g>
					<path class="st0" d="M595.2,106.8c-0.1,0-0.2-0.6-0.2-1.4c0-0.8,0.1-1.4,0.2-1.4c0.1,0,0.2,0.6,0.2,1.4
						C595.4,106.2,595.3,106.8,595.2,106.8z"/>
				</g>
			</g>
			<g>
				<g>
					<path class="st0" d="M595.2,112.6c-0.1,0-0.2-0.6-0.2-1.4c0-0.8,0.1-1.4,0.2-1.4c0.1,0,0.2,0.6,0.2,1.4
						C595.4,111.9,595.3,112.6,595.2,112.6z"/>
				</g>
			</g>
			<g>
				<g>
					<path class="st0" d="M595.2,118.3c-0.1,0-0.2-0.6-0.2-1.4c0-0.8,0.1-1.4,0.2-1.4c0.1,0,0.2,0.6,0.2,1.4
						C595.4,117.7,595.3,118.3,595.2,118.3z"/>
				</g>
			</g>
			<g>
				<g>
					<path class="st0" d="M595.2,124c-0.1,0-0.2-0.6-0.2-1.4c0-0.8,0.1-1.4,0.2-1.4c0.1,0,0.2,0.6,0.2,1.4
						C595.4,123.4,595.3,124,595.2,124z"/>
				</g>
			</g>
			<g>
				<g>
					<path class="st0" d="M595.2,129.8c-0.1,0-0.2-0.6-0.2-1.4c0-0.8,0.1-1.4,0.2-1.4c0.1,0,0.2,0.6,0.2,1.4
						C595.4,129.1,595.3,129.8,595.2,129.8z"/>
				</g>
			</g>
			<g>
				<g>
					<path class="st0" d="M595.2,135.5c-0.1,0-0.2-0.6-0.2-1.4c0-0.8,0.1-1.4,0.2-1.4c0.1,0,0.2,0.6,0.2,1.4
						C595.4,134.9,595.3,135.5,595.2,135.5z"/>
				</g>
			</g>
			<g>
				<g>
					<path class="st0" d="M595.2,141.2c-0.1,0-0.2-0.6-0.2-1.4c0-0.8,0.1-1.4,0.2-1.4c0.1,0,0.2,0.6,0.2,1.4
						C595.4,140.6,595.3,141.2,595.2,141.2z"/>
				</g>
			</g>
			<g>
				<g>
					<path class="st0" d="M595.2,147c-0.1,0-0.2-0.6-0.2-1.4c0-0.8,0.1-1.4,0.2-1.4c0.1,0,0.2,0.6,0.2,1.4
						C595.4,146.3,595.3,147,595.2,147z"/>
				</g>
			</g>
			<g>
				<g>
					<path class="st0" d="M595.2,152.7c-0.1,0-0.2-0.6-0.2-1.4c0-0.8,0.1-1.4,0.2-1.4c0.1,0,0.2,0.6,0.2,1.4
						C595.4,152.1,595.3,152.7,595.2,152.7z"/>
				</g>
			</g>
			<g>
				<g>
					<path class="st0" d="M595.2,158.4c-0.1,0-0.2-0.6-0.2-1.4c0-0.8,0.1-1.4,0.2-1.4c0.1,0,0.2,0.6,0.2,1.4
						C595.4,157.8,595.3,158.4,595.2,158.4z"/>
				</g>
			</g>
			<g>
				<g>
					<path class="st0" d="M595.2,164.2c-0.1,0-0.2-0.6-0.2-1.4c0-0.8,0.1-1.4,0.2-1.4c0.1,0,0.2,0.6,0.2,1.4
						C595.4,163.5,595.3,164.2,595.2,164.2z"/>
				</g>
			</g>
			<g>
				<g>
					<path class="st0" d="M595.2,169.9c-0.1,0-0.2-0.6-0.2-1.4c0-0.8,0.1-1.4,0.2-1.4c0.1,0,0.2,0.6,0.2,1.4
						C595.4,169.3,595.3,169.9,595.2,169.9z"/>
				</g>
			</g>
			<g>
				<g>
					<path class="st0" d="M595.2,175.7c-0.1,0-0.2-0.6-0.2-1.4c0-0.8,0.1-1.4,0.2-1.4c0.1,0,0.2,0.6,0.2,1.4
						C595.4,175,595.3,175.7,595.2,175.7z"/>
				</g>
			</g>
			<g>
				<g>
					<path class="st0" d="M595.2,181.4c-0.1,0-0.2-0.6-0.2-1.4c0-0.8,0.1-1.4,0.2-1.4c0.1,0,0.2,0.6,0.2,1.4
						C595.4,180.7,595.3,181.4,595.2,181.4z"/>
				</g>
			</g>
			<g>
				<g>
					<path class="st0" d="M595.2,187.1c-0.1,0-0.2-0.6-0.2-1.4c0-0.8,0.1-1.4,0.2-1.4c0.1,0,0.2,0.6,0.2,1.4
						C595.4,186.5,595.3,187.1,595.2,187.1z"/>
				</g>
			</g>
			<g>
				<g>
					<path class="st0" d="M595.2,192.9c-0.1,0-0.2-0.6-0.2-1.4c0-0.8,0.1-1.4,0.2-1.4c0.1,0,0.2,0.6,0.2,1.4
						C595.4,192.2,595.3,192.9,595.2,192.9z"/>
				</g>
			</g>
		</g>
		<g>
			<rect x="591.4" y="192.3" class="st0" width="7.6" height="7.6"/>
		</g>
		<g>
			<rect x="489.3" y="193.4" class="st0" width="7.6" height="7.6"/>
		</g>
		<g>
			<rect x="591.4" y="90.5" class="st0" width="7.6" height="7.6"/>
		</g>
		<g>
			<rect x="489.3" y="91.2" class="st0" width="7.6" height="7.6"/>
		</g>
	</g>
	<g>
		<g>
			<g>
				<g>
					<path class="st0" d="M184.7,154.1c0-0.1,1-0.2,2.1-0.2c0.2,0,0.5,0,0.7,0l-0.2,0.2c0-0.8,0.1-1.4,0.2-1.4
						c0.1,0,0.2,0.6,0.2,1.4l0,0.2l-0.2,0c-0.3,0-0.5,0-0.7,0C185.6,154.4,184.7,154.3,184.7,154.1z"/>
				</g>
			</g>
			<g>
				<g>
					<path class="st0" d="M178.9,154.1c0-0.1,0.6-0.2,1.4-0.2c0.8,0,1.4,0.1,1.4,0.2c0,0.1-0.6,0.2-1.4,0.2
						C179.6,154.4,178.9,154.3,178.9,154.1z"/>
				</g>
			</g>
			<g>
				<g>
					<path class="st0" d="M173.2,154.1c0-0.1,0.6-0.2,1.4-0.2c0.8,0,1.4,0.1,1.4,0.2c0,0.1-0.6,0.2-1.4,0.2
						C173.8,154.4,173.2,154.3,173.2,154.1z"/>
				</g>
			</g>
			<g>
				<g>
					<path class="st0" d="M167.4,154.1c0-0.1,0.6-0.2,1.4-0.2c0.8,0,1.4,0.1,1.4,0.2c0,0.1-0.6,0.2-1.4,0.2
						C168.1,154.4,167.4,154.3,167.4,154.1z"/>
				</g>
			</g>
			<g>
				<g>
					<path class="st0" d="M161.7,154.1c0-0.1,0.6-0.2,1.4-0.2c0.8,0,1.4,0.1,1.4,0.2c0,0.1-0.6,0.2-1.4,0.2
						C162.4,154.4,161.7,154.3,161.7,154.1z"/>
				</g>
			</g>
			<g>
				<g>
					<path class="st0" d="M156,154.1c0-0.1,0.6-0.2,1.4-0.2c0.8,0,1.4,0.1,1.4,0.2c0,0.1-0.6,0.2-1.4,0.2
						C156.6,154.4,156,154.3,156,154.1z"/>
				</g>
			</g>
			<g>
				<g>
					<path class="st0" d="M150.2,154.1c0-0.1,0.6-0.2,1.4-0.2c0.8,0,1.4,0.1,1.4,0.2c0,0.1-0.6,0.2-1.4,0.2
						C150.9,154.4,150.2,154.3,150.2,154.1z"/>
				</g>
			</g>
			<g>
				<g>
					<path class="st0" d="M144.5,154.1c0-0.1,0.6-0.2,1.4-0.2c0.8,0,1.4,0.1,1.4,0.2c0,0.1-0.6,0.2-1.4,0.2
						C145.1,154.4,144.5,154.3,144.5,154.1z"/>
				</g>
			</g>
			<g>
				<g>
					<path class="st0" d="M138.8,154.1c0-0.1,0.6-0.2,1.4-0.2c0.8,0,1.4,0.1,1.4,0.2c0,0.1-0.6,0.2-1.4,0.2
						C139.4,154.4,138.8,154.3,138.8,154.1z"/>
				</g>
			</g>
			<g>
				<g>
					<path class="st0" d="M133,154.1c0-0.1,0.6-0.2,1.4-0.2c0.8,0,1.4,0.1,1.4,0.2c0,0.1-0.6,0.2-1.4,0.2
						C133.7,154.4,133,154.3,133,154.1z"/>
				</g>
			</g>
			<g>
				<g>
					<path class="st0" d="M127.3,154.1c0-0.1,0.6-0.2,1.4-0.2c0.8,0,1.4,0.1,1.4,0.2c0,0.1-0.6,0.2-1.4,0.2
						C127.9,154.4,127.3,154.3,127.3,154.1z"/>
				</g>
			</g>
			<g>
				<g>
					<path class="st0" d="M121.6,154.1c0-0.1,0.6-0.2,1.4-0.2c0.8,0,1.4,0.1,1.4,0.2c0,0.1-0.6,0.2-1.4,0.2
						C122.2,154.4,121.6,154.3,121.6,154.1z"/>
				</g>
			</g>
			<g>
				<g>
					<path class="st0" d="M115.8,154.1c0-0.1,0.6-0.2,1.4-0.2c0.8,0,1.4,0.1,1.4,0.2c0,0.1-0.6,0.2-1.4,0.2
						C116.5,154.4,115.8,154.3,115.8,154.1z"/>
				</g>
			</g>
			<g>
				<g>
					<path class="st0" d="M110.1,154.1c0-0.1,0.6-0.2,1.4-0.2c0.8,0,1.4,0.1,1.4,0.2c0,0.1-0.6,0.2-1.4,0.2
						C110.7,154.4,110.1,154.3,110.1,154.1z"/>
				</g>
			</g>
			<g>
				<g>
					<path class="st0" d="M104.4,154.1c0-0.1,0.6-0.2,1.4-0.2c0.8,0,1.4,0.1,1.4,0.2c0,0.1-0.6,0.2-1.4,0.2
						C105,154.4,104.4,154.3,104.4,154.1z"/>
				</g>
			</g>
			<g>
				<g>
					<path class="st0" d="M98.6,154.1c0-0.1,0.6-0.2,1.4-0.2c0.8,0,1.4,0.1,1.4,0.2c0,0.1-0.6,0.2-1.4,0.2
						C99.3,154.4,98.6,154.3,98.6,154.1z"/>
				</g>
			</g>
			<g>
				<g>
					<path class="st0" d="M92.9,154.1c0-0.1,0.6-0.2,1.4-0.2c0.8,0,1.4,0.1,1.4,0.2c0,0.1-0.6,0.2-1.4,0.2
						C93.5,154.4,92.9,154.3,92.9,154.1z"/>
				</g>
			</g>
			<g>
				<g>
					<path class="st0" d="M87.1,154.1c0-0.1,0.6-0.2,1.4-0.2c0.8,0,1.4,0.1,1.4,0.2c0,0.1-0.6,0.2-1.4,0.2
						C87.8,154.4,87.1,154.3,87.1,154.1z"/>
				</g>
			</g>
			<g>
				<g>
					<path class="st0" d="M85.4,150.2c0.1,0,0.2,0.6,0.2,1.4c0,0.8-0.1,1.4-0.2,1.4c-0.1,0-0.2-0.6-0.2-1.4
						C85.1,150.8,85.2,150.2,85.4,150.2z"/>
				</g>
			</g>
			<g>
				<g>
					<path class="st0" d="M85.4,144.5c0.1,0,0.2,0.6,0.2,1.4c0,0.8-0.1,1.4-0.2,1.4c-0.1,0-0.2-0.6-0.2-1.4
						C85.1,145.1,85.2,144.5,85.4,144.5z"/>
				</g>
			</g>
			<g>
				<g>
					<path class="st0" d="M85.4,138.7c0.1,0,0.2,0.6,0.2,1.4c0,0.8-0.1,1.4-0.2,1.4c-0.1,0-0.2-0.6-0.2-1.4
						C85.1,139.4,85.2,138.7,85.4,138.7z"/>
				</g>
			</g>
			<g>
				<g>
					<path class="st0" d="M85.4,133c0.1,0,0.2,0.6,0.2,1.4c0,0.8-0.1,1.4-0.2,1.4c-0.1,0-0.2-0.6-0.2-1.4
						C85.1,133.6,85.2,133,85.4,133z"/>
				</g>
			</g>
			<g>
				<g>
					<path class="st0" d="M85.4,127.2c0.1,0,0.2,0.6,0.2,1.4c0,0.8-0.1,1.4-0.2,1.4c-0.1,0-0.2-0.6-0.2-1.4
						C85.1,127.9,85.2,127.2,85.4,127.2z"/>
				</g>
			</g>
			<g>
				<g>
					<path class="st0" d="M85.4,121.5c0.1,0,0.2,0.6,0.2,1.4c0,0.8-0.1,1.4-0.2,1.4c-0.1,0-0.2-0.6-0.2-1.4
						C85.1,122.2,85.2,121.5,85.4,121.5z"/>
				</g>
			</g>
			<g>
				<g>
					<path class="st0" d="M85.4,115.8c0.1,0,0.2,0.6,0.2,1.4c0,0.8-0.1,1.4-0.2,1.4c-0.1,0-0.2-0.6-0.2-1.4
						C85.1,116.4,85.2,115.8,85.4,115.8z"/>
				</g>
			</g>
			<g>
				<g>
					<path class="st0" d="M85.4,110c0.1,0,0.2,0.6,0.2,1.4s-0.1,1.4-0.2,1.4c-0.1,0-0.2-0.6-0.2-1.4S85.2,110,85.4,110z"/>
				</g>
			</g>
			<g>
				<g>
					<path class="st0" d="M85.4,104.3c0.1,0,0.2,0.6,0.2,1.4s-0.1,1.4-0.2,1.4c-0.1,0-0.2-0.6-0.2-1.4S85.2,104.3,85.4,104.3z"/>
				</g>
			</g>
			<g>
				<g>
					<path class="st0" d="M85.4,98.6c0.1,0,0.2,0.6,0.2,1.4c0,0.8-0.1,1.4-0.2,1.4c-0.1,0-0.2-0.6-0.2-1.4
						C85.1,99.2,85.2,98.6,85.4,98.6z"/>
				</g>
			</g>
			<g>
				<g>
					<path class="st0" d="M85.4,92.8c0.1,0,0.2,0.6,0.2,1.4c0,0.8-0.1,1.4-0.2,1.4c-0.1,0-0.2-0.6-0.2-1.4
						C85.1,93.5,85.2,92.8,85.4,92.8z"/>
				</g>
			</g>
			<g>
				<g>
					<path class="st0" d="M85.4,87.1c0.1,0,0.2,0.6,0.2,1.4c0,0.8-0.1,1.4-0.2,1.4c-0.1,0-0.2-0.6-0.2-1.4
						C85.1,87.7,85.2,87.1,85.4,87.1z"/>
				</g>
			</g>
			<g>
				<g>
					<path class="st0" d="M85.4,81.4c0.1,0,0.2,0.6,0.2,1.4c0,0.8-0.1,1.4-0.2,1.4c-0.1,0-0.2-0.6-0.2-1.4
						C85.1,82,85.2,81.4,85.4,81.4z"/>
				</g>
			</g>
			<g>
				<g>
					<path class="st0" d="M85.4,75.6c0.1,0,0.2,0.6,0.2,1.4c0,0.8-0.1,1.4-0.2,1.4c-0.1,0-0.2-0.6-0.2-1.4
						C85.1,76.3,85.2,75.6,85.4,75.6z"/>
				</g>
			</g>
			<g>
				<g>
					<path class="st0" d="M85.4,69.9c0.1,0,0.2,0.6,0.2,1.4c0,0.8-0.1,1.4-0.2,1.4c-0.1,0-0.2-0.6-0.2-1.4
						C85.1,70.5,85.2,69.9,85.4,69.9z"/>
				</g>
			</g>
			<g>
				<g>
					<path class="st0" d="M85.4,64.2c0.1,0,0.2,0.6,0.2,1.4c0,0.8-0.1,1.4-0.2,1.4c-0.1,0-0.2-0.6-0.2-1.4
						C85.1,64.8,85.2,64.2,85.4,64.2z"/>
				</g>
			</g>
			<g>
				<g>
					<path class="st0" d="M85.4,58.4c0.1,0,0.2,0.6,0.2,1.4c0,0.8-0.1,1.4-0.2,1.4c-0.1,0-0.2-0.6-0.2-1.4
						C85.1,59.1,85.2,58.4,85.4,58.4z"/>
				</g>
			</g>
			<g>
				<g>
					<path class="st0" d="M85.4,52.7c0.1,0,0.2,0.6,0.2,1.4c0,0.8-0.1,1.4-0.2,1.4c-0.1,0-0.2-0.6-0.2-1.4
						C85.1,53.3,85.2,52.7,85.4,52.7z"/>
				</g>
			</g>
			<g>
				<g>
					<path class="st0" d="M90.4,52c0,0.1-0.6,0.2-1.4,0.2c-0.8,0-1.4-0.1-1.4-0.2c0-0.1,0.6-0.2,1.4-0.2
						C89.7,51.7,90.4,51.8,90.4,52z"/>
				</g>
			</g>
			<g>
				<g>
					<path class="st0" d="M96.1,52c0,0.1-0.6,0.2-1.4,0.2c-0.8,0-1.4-0.1-1.4-0.2c0-0.1,0.6-0.2,1.4-0.2
						C95.5,51.7,96.1,51.8,96.1,52z"/>
				</g>
			</g>
			<g>
				<g>
					<path class="st0" d="M101.9,52c0,0.1-0.6,0.2-1.4,0.2c-0.8,0-1.4-0.1-1.4-0.2c0-0.1,0.6-0.2,1.4-0.2
						C101.2,51.7,101.9,51.8,101.9,52z"/>
				</g>
			</g>
			<g>
				<g>
					<ellipse class="st0" cx="106.2" cy="52" rx="1.4" ry="0.2"/>
				</g>
			</g>
			<g>
				<g>
					<path class="st0" d="M113.3,52c0,0.1-0.6,0.2-1.4,0.2c-0.8,0-1.4-0.1-1.4-0.2c0-0.1,0.6-0.2,1.4-0.2
						C112.7,51.7,113.3,51.8,113.3,52z"/>
				</g>
			</g>
			<g>
				<g>
					<path class="st0" d="M119.1,52c0,0.1-0.6,0.2-1.4,0.2c-0.8,0-1.4-0.1-1.4-0.2c0-0.1,0.6-0.2,1.4-0.2
						C118.4,51.7,119.1,51.8,119.1,52z"/>
				</g>
			</g>
			<g>
				<g>
					<path class="st0" d="M124.8,52c0,0.1-0.6,0.2-1.4,0.2c-0.8,0-1.4-0.1-1.4-0.2c0-0.1,0.6-0.2,1.4-0.2
						C124.2,51.7,124.8,51.8,124.8,52z"/>
				</g>
			</g>
			<g>
				<g>
					<path class="st0" d="M130.5,52c0,0.1-0.6,0.2-1.4,0.2c-0.8,0-1.4-0.1-1.4-0.2c0-0.1,0.6-0.2,1.4-0.2
						C129.9,51.7,130.5,51.8,130.5,52z"/>
				</g>
			</g>
			<g>
				<g>
					<path class="st0" d="M136.3,52c0,0.1-0.6,0.2-1.4,0.2c-0.8,0-1.4-0.1-1.4-0.2c0-0.1,0.6-0.2,1.4-0.2
						C135.6,51.7,136.3,51.8,136.3,52z"/>
				</g>
			</g>
			<g>
				<g>
					<path class="st0" d="M142,52c0,0.1-0.6,0.2-1.4,0.2c-0.8,0-1.4-0.1-1.4-0.2c0-0.1,0.6-0.2,1.4-0.2C141.4,51.7,142,51.8,142,52z
						"/>
				</g>
			</g>
			<g>
				<g>
					<path class="st0" d="M147.7,52c0,0.1-0.6,0.2-1.4,0.2c-0.8,0-1.4-0.1-1.4-0.2c0-0.1,0.6-0.2,1.4-0.2
						C147.1,51.7,147.7,51.8,147.7,52z"/>
				</g>
			</g>
			<g>
				<g>
					<path class="st0" d="M153.5,52c0,0.1-0.6,0.2-1.4,0.2c-0.8,0-1.4-0.1-1.4-0.2c0-0.1,0.6-0.2,1.4-0.2
						C152.8,51.7,153.5,51.8,153.5,52z"/>
				</g>
			</g>
			<g>
				<g>
					<path class="st0" d="M159.2,52c0,0.1-0.6,0.2-1.4,0.2c-0.8,0-1.4-0.1-1.4-0.2c0-0.1,0.6-0.2,1.4-0.2
						C158.6,51.7,159.2,51.8,159.2,52z"/>
				</g>
			</g>
			<g>
				<g>
					<path class="st0" d="M164.9,52c0,0.1-0.6,0.2-1.4,0.2c-0.8,0-1.4-0.1-1.4-0.2c0-0.1,0.6-0.2,1.4-0.2
						C164.3,51.7,164.9,51.8,164.9,52z"/>
				</g>
			</g>
			<g>
				<g>
					<path class="st0" d="M170.7,52c0,0.1-0.6,0.2-1.4,0.2c-0.8,0-1.4-0.1-1.4-0.2c0-0.1,0.6-0.2,1.4-0.2
						C170,51.7,170.7,51.8,170.7,52z"/>
				</g>
			</g>
			<g>
				<g>
					<path class="st0" d="M176.4,52c0,0.1-0.6,0.2-1.4,0.2c-0.8,0-1.4-0.1-1.4-0.2c0-0.1,0.6-0.2,1.4-0.2
						C175.8,51.7,176.4,51.8,176.4,52z"/>
				</g>
			</g>
			<g>
				<g>
					<path class="st0" d="M182.2,52c0,0.1-0.6,0.2-1.4,0.2c-0.8,0-1.4-0.1-1.4-0.2c0-0.1,0.6-0.2,1.4-0.2
						C181.5,51.7,182.2,51.8,182.2,52z"/>
				</g>
			</g>
			<g>
				<g>
					<path class="st0" d="M187.5,52.3c-0.1,0-0.1-0.1-0.2-0.4l0.2,0.2c-0.3,0.1-0.6,0.1-1.1,0.1c-0.8,0-1.4-0.1-1.4-0.2
						c0-0.1,0.6-0.2,1.4-0.2c0.4,0,0.8,0,1.1,0.1l0.2,0l0,0.1C187.6,52.2,187.6,52.3,187.5,52.3z"/>
				</g>
			</g>
			<g>
				<g>
					<path class="st0" d="M187.5,58.1c-0.1,0-0.2-0.6-0.2-1.4c0-0.8,0.1-1.4,0.2-1.4c0.1,0,0.2,0.6,0.2,1.4
						C187.8,57.4,187.7,58.1,187.5,58.1z"/>
				</g>
			</g>
			<g>
				<g>
					<path class="st0" d="M187.5,63.8c-0.1,0-0.2-0.6-0.2-1.4c0-0.8,0.1-1.4,0.2-1.4c0.1,0,0.2,0.6,0.2,1.4
						C187.8,63.2,187.7,63.8,187.5,63.8z"/>
				</g>
			</g>
			<g>
				<g>
					<path class="st0" d="M187.5,69.5c-0.1,0-0.2-0.6-0.2-1.4c0-0.8,0.1-1.4,0.2-1.4c0.1,0,0.2,0.6,0.2,1.4
						C187.8,68.9,187.7,69.5,187.5,69.5z"/>
				</g>
			</g>
			<g>
				<g>
					<path class="st0" d="M187.5,75.3c-0.1,0-0.2-0.6-0.2-1.4c0-0.8,0.1-1.4,0.2-1.4c0.1,0,0.2,0.6,0.2,1.4
						C187.8,74.6,187.7,75.3,187.5,75.3z"/>
				</g>
			</g>
			<g>
				<g>
					<path class="st0" d="M187.5,81c-0.1,0-0.2-0.6-0.2-1.4c0-0.8,0.1-1.4,0.2-1.4c0.1,0,0.2,0.6,0.2,1.4
						C187.8,80.4,187.7,81,187.5,81z"/>
				</g>
			</g>
			<g>
				<g>
					<path class="st0" d="M187.5,86.8c-0.1,0-0.2-0.6-0.2-1.4c0-0.8,0.1-1.4,0.2-1.4c0.1,0,0.2,0.6,0.2,1.4
						C187.8,86.1,187.7,86.8,187.5,86.8z"/>
				</g>
			</g>
			<g>
				<g>
					<path class="st0" d="M187.5,92.5c-0.1,0-0.2-0.6-0.2-1.4c0-0.8,0.1-1.4,0.2-1.4c0.1,0,0.2,0.6,0.2,1.4
						C187.8,91.8,187.7,92.5,187.5,92.5z"/>
				</g>
			</g>
			<g>
				<g>
					<path class="st0" d="M187.5,98.2c-0.1,0-0.2-0.6-0.2-1.4c0-0.8,0.1-1.4,0.2-1.4c0.1,0,0.2,0.6,0.2,1.4
						C187.8,97.6,187.7,98.2,187.5,98.2z"/>
				</g>
			</g>
			<g>
				<g>
					<path class="st0" d="M187.5,104c-0.1,0-0.2-0.6-0.2-1.4c0-0.8,0.1-1.4,0.2-1.4c0.1,0,0.2,0.6,0.2,1.4
						C187.8,103.3,187.7,104,187.5,104z"/>
				</g>
			</g>
			<g>
				<g>
					<path class="st0" d="M187.5,109.7c-0.1,0-0.2-0.6-0.2-1.4c0-0.8,0.1-1.4,0.2-1.4c0.1,0,0.2,0.6,0.2,1.4
						C187.8,109.1,187.7,109.7,187.5,109.7z"/>
				</g>
			</g>
			<g>
				<g>
					<path class="st0" d="M187.5,115.4c-0.1,0-0.2-0.6-0.2-1.4c0-0.8,0.1-1.4,0.2-1.4c0.1,0,0.2,0.6,0.2,1.4
						C187.8,114.8,187.7,115.4,187.5,115.4z"/>
				</g>
			</g>
			<g>
				<g>
					<path class="st0" d="M187.5,121.2c-0.1,0-0.2-0.6-0.2-1.4c0-0.8,0.1-1.4,0.2-1.4c0.1,0,0.2,0.6,0.2,1.4
						C187.8,120.5,187.7,121.2,187.5,121.2z"/>
				</g>
			</g>
			<g>
				<g>
					<path class="st0" d="M187.5,126.9c-0.1,0-0.2-0.6-0.2-1.4c0-0.8,0.1-1.4,0.2-1.4c0.1,0,0.2,0.6,0.2,1.4
						C187.8,126.3,187.7,126.9,187.5,126.9z"/>
				</g>
			</g>
			<g>
				<g>
					<path class="st0" d="M187.5,132.6c-0.1,0-0.2-0.6-0.2-1.4c0-0.8,0.1-1.4,0.2-1.4c0.1,0,0.2,0.6,0.2,1.4
						C187.8,132,187.7,132.6,187.5,132.6z"/>
				</g>
			</g>
			<g>
				<g>
					<path class="st0" d="M187.5,138.4c-0.1,0-0.2-0.6-0.2-1.4c0-0.8,0.1-1.4,0.2-1.4c0.1,0,0.2,0.6,0.2,1.4
						C187.8,137.7,187.7,138.4,187.5,138.4z"/>
				</g>
			</g>
			<g>
				<g>
					<path class="st0" d="M187.5,144.1c-0.1,0-0.2-0.6-0.2-1.4c0-0.8,0.1-1.4,0.2-1.4c0.1,0,0.2,0.6,0.2,1.4
						C187.8,143.5,187.7,144.1,187.5,144.1z"/>
				</g>
			</g>
			<g>
				<g>
					<path class="st0" d="M187.5,149.8c-0.1,0-0.2-0.6-0.2-1.4c0-0.8,0.1-1.4,0.2-1.4c0.1,0,0.2,0.6,0.2,1.4
						C187.8,149.2,187.7,149.8,187.5,149.8z"/>
				</g>
			</g>
		</g>
		<g>
			<rect x="183.7" y="149.3" class="st0" width="7.6" height="7.6"/>
		</g>
		<g>
			<rect x="81.6" y="150.4" class="st0" width="7.6" height="7.6"/>
		</g>
		<g>
			<rect x="183.7" y="47.5" class="st0" width="7.6" height="7.6"/>
		</g>
		<g>
			<rect x="81.6" y="48.2" class="st0" width="7.6" height="7.6"/>
		</g>
	</g>
	<g>
		<g>
			<g>
				<g>
					<path class="st0" d="M710.2,278.3c0-0.1,0.7-0.2,1.7-0.2c0.2,0,0.4,0,0.6,0l-0.2,0.2c0-0.6,0.1-1.1,0.2-1.1
						c0.1,0,0.2,0.5,0.2,1.1l0,0.2l-0.2,0c-0.2,0-0.4,0-0.6,0C711,278.5,710.2,278.4,710.2,278.3z"/>
				</g>
			</g>
			<g>
				<g>
					<path class="st0" d="M705.8,278.3c0-0.1,0.5-0.2,1.1-0.2c0.6,0,1.1,0.1,1.1,0.2s-0.5,0.2-1.1,0.2
						C706.3,278.5,705.8,278.4,705.8,278.3z"/>
				</g>
			</g>
			<g>
				<g>
					<path class="st0" d="M701.3,278.3c0-0.1,0.5-0.2,1.1-0.2c0.6,0,1.1,0.1,1.1,0.2s-0.5,0.2-1.1,0.2
						C701.8,278.5,701.3,278.4,701.3,278.3z"/>
				</g>
			</g>
			<g>
				<g>
					<path class="st0" d="M696.9,278.3c0-0.1,0.5-0.2,1.1-0.2c0.6,0,1.1,0.1,1.1,0.2s-0.5,0.2-1.1,0.2
						C697.4,278.5,696.9,278.4,696.9,278.3z"/>
				</g>
			</g>
			<g>
				<g>
					<path class="st0" d="M692.4,278.3c0-0.1,0.5-0.2,1.1-0.2c0.6,0,1.1,0.1,1.1,0.2s-0.5,0.2-1.1,0.2
						C692.9,278.5,692.4,278.4,692.4,278.3z"/>
				</g>
			</g>
			<g>
				<g>
					<path class="st0" d="M687.9,278.3c0-0.1,0.5-0.2,1.1-0.2c0.6,0,1.1,0.1,1.1,0.2s-0.5,0.2-1.1,0.2
						C688.4,278.5,687.9,278.4,687.9,278.3z"/>
				</g>
			</g>
			<g>
				<g>
					<path class="st0" d="M683.5,278.3c0-0.1,0.5-0.2,1.1-0.2c0.6,0,1.1,0.1,1.1,0.2s-0.5,0.2-1.1,0.2
						C684,278.5,683.5,278.4,683.5,278.3z"/>
				</g>
			</g>
			<g>
				<g>
					<path class="st0" d="M679,278.3c0-0.1,0.5-0.2,1.1-0.2c0.6,0,1.1,0.1,1.1,0.2s-0.5,0.2-1.1,0.2
						C679.5,278.5,679,278.4,679,278.3z"/>
				</g>
			</g>
			<g>
				<g>
					<path class="st0" d="M674.6,278.3c0-0.1,0.5-0.2,1.1-0.2c0.6,0,1.1,0.1,1.1,0.2s-0.5,0.2-1.1,0.2
						C675.1,278.5,674.6,278.4,674.6,278.3z"/>
				</g>
			</g>
			<g>
				<g>
					<path class="st0" d="M670.1,278.3c0-0.1,0.5-0.2,1.1-0.2c0.6,0,1.1,0.1,1.1,0.2s-0.5,0.2-1.1,0.2
						C670.6,278.5,670.1,278.4,670.1,278.3z"/>
				</g>
			</g>
			<g>
				<g>
					<path class="st0" d="M665.6,278.3c0-0.1,0.5-0.2,1.1-0.2c0.6,0,1.1,0.1,1.1,0.2s-0.5,0.2-1.1,0.2
						C666.1,278.5,665.6,278.4,665.6,278.3z"/>
				</g>
			</g>
			<g>
				<g>
					<path class="st0" d="M661.2,278.3c0-0.1,0.5-0.2,1.1-0.2c0.6,0,1.1,0.1,1.1,0.2s-0.5,0.2-1.1,0.2
						C661.7,278.5,661.2,278.4,661.2,278.3z"/>
				</g>
			</g>
			<g>
				<g>
					<path class="st0" d="M656.7,278.3c0-0.1,0.5-0.2,1.1-0.2c0.6,0,1.1,0.1,1.1,0.2s-0.5,0.2-1.1,0.2
						C657.2,278.5,656.7,278.4,656.7,278.3z"/>
				</g>
			</g>
			<g>
				<g>
					<path class="st0" d="M652.3,278.3c0-0.1,0.5-0.2,1.1-0.2c0.6,0,1.1,0.1,1.1,0.2s-0.5,0.2-1.1,0.2
						C652.8,278.5,652.3,278.4,652.3,278.3z"/>
				</g>
			</g>
			<g>
				<g>
					<path class="st0" d="M647.8,278.3c0-0.1,0.5-0.2,1.1-0.2c0.6,0,1.1,0.1,1.1,0.2s-0.5,0.2-1.1,0.2
						C648.3,278.5,647.8,278.4,647.8,278.3z"/>
				</g>
			</g>
			<g>
				<g>
					<path class="st0" d="M643.3,278.3c0-0.1,0.5-0.2,1.1-0.2c0.6,0,1.1,0.1,1.1,0.2s-0.5,0.2-1.1,0.2
						C643.8,278.5,643.3,278.4,643.3,278.3z"/>
				</g>
			</g>
			<g>
				<g>
					<path class="st0" d="M638.9,278.3c0-0.1,0.5-0.2,1.1-0.2c0.6,0,1.1,0.1,1.1,0.2s-0.5,0.2-1.1,0.2
						C639.4,278.5,638.9,278.4,638.9,278.3z"/>
				</g>
			</g>
			<g>
				<g>
					<path class="st0" d="M634.4,278.3c0-0.1,0.5-0.2,1.1-0.2c0.6,0,1.1,0.1,1.1,0.2s-0.5,0.2-1.1,0.2
						C634.9,278.5,634.4,278.4,634.4,278.3z"/>
				</g>
			</g>
			<g>
				<g>
					<path class="st0" d="M633,275.2c0.1,0,0.2,0.5,0.2,1.1c0,0.6-0.1,1.1-0.2,1.1c-0.1,0-0.2-0.5-0.2-1.1
						C632.8,275.7,632.9,275.2,633,275.2z"/>
				</g>
			</g>
			<g>
				<g>
					<path class="st0" d="M633,270.8c0.1,0,0.2,0.5,0.2,1.1c0,0.6-0.1,1.1-0.2,1.1c-0.1,0-0.2-0.5-0.2-1.1
						C632.8,271.3,632.9,270.8,633,270.8z"/>
				</g>
			</g>
			<g>
				<g>
					<path class="st0" d="M633,266.3c0.1,0,0.2,0.5,0.2,1.1c0,0.6-0.1,1.1-0.2,1.1c-0.1,0-0.2-0.5-0.2-1.1
						C632.8,266.8,632.9,266.3,633,266.3z"/>
				</g>
			</g>
			<g>
				<g>
					<path class="st0" d="M633,261.9c0.1,0,0.2,0.5,0.2,1.1c0,0.6-0.1,1.1-0.2,1.1c-0.1,0-0.2-0.5-0.2-1.1
						C632.8,262.4,632.9,261.9,633,261.9z"/>
				</g>
			</g>
			<g>
				<g>
					<path class="st0" d="M633,257.4c0.1,0,0.2,0.5,0.2,1.1c0,0.6-0.1,1.1-0.2,1.1c-0.1,0-0.2-0.5-0.2-1.1
						C632.8,257.9,632.9,257.4,633,257.4z"/>
				</g>
			</g>
			<g>
				<g>
					<path class="st0" d="M633,252.9c0.1,0,0.2,0.5,0.2,1.1s-0.1,1.1-0.2,1.1c-0.1,0-0.2-0.5-0.2-1.1S632.9,252.9,633,252.9z"/>
				</g>
			</g>
			<g>
				<g>
					<path class="st0" d="M633,248.5c0.1,0,0.2,0.5,0.2,1.1s-0.1,1.1-0.2,1.1c-0.1,0-0.2-0.5-0.2-1.1S632.9,248.5,633,248.5z"/>
				</g>
			</g>
			<g>
				<g>
					<path class="st0" d="M633,244c0.1,0,0.2,0.5,0.2,1.1s-0.1,1.1-0.2,1.1c-0.1,0-0.2-0.5-0.2-1.1S632.9,244,633,244z"/>
				</g>
			</g>
			<g>
				<g>
					<path class="st0" d="M633,239.6c0.1,0,0.2,0.5,0.2,1.1c0,0.6-0.1,1.1-0.2,1.1c-0.1,0-0.2-0.5-0.2-1.1
						C632.8,240.1,632.9,239.6,633,239.6z"/>
				</g>
			</g>
			<g>
				<g>
					<path class="st0" d="M633,235.1c0.1,0,0.2,0.5,0.2,1.1c0,0.6-0.1,1.1-0.2,1.1c-0.1,0-0.2-0.5-0.2-1.1
						C632.8,235.6,632.9,235.1,633,235.1z"/>
				</g>
			</g>
			<g>
				<g>
					<path class="st0" d="M633,230.6c0.1,0,0.2,0.5,0.2,1.1c0,0.6-0.1,1.1-0.2,1.1c-0.1,0-0.2-0.5-0.2-1.1
						C632.8,231.1,632.9,230.6,633,230.6z"/>
				</g>
			</g>
			<g>
				<g>
					<path class="st0" d="M633,226.2c0.1,0,0.2,0.5,0.2,1.1c0,0.6-0.1,1.1-0.2,1.1c-0.1,0-0.2-0.5-0.2-1.1
						C632.8,226.7,632.9,226.2,633,226.2z"/>
				</g>
			</g>
			<g>
				<g>
					<path class="st0" d="M633,221.7c0.1,0,0.2,0.5,0.2,1.1c0,0.6-0.1,1.1-0.2,1.1c-0.1,0-0.2-0.5-0.2-1.1
						C632.8,222.2,632.9,221.7,633,221.7z"/>
				</g>
			</g>
			<g>
				<g>
					<path class="st0" d="M633,217.3c0.1,0,0.2,0.5,0.2,1.1c0,0.6-0.1,1.1-0.2,1.1c-0.1,0-0.2-0.5-0.2-1.1
						C632.8,217.8,632.9,217.3,633,217.3z"/>
				</g>
			</g>
			<g>
				<g>
					<path class="st0" d="M633,212.8c0.1,0,0.2,0.5,0.2,1.1c0,0.6-0.1,1.1-0.2,1.1c-0.1,0-0.2-0.5-0.2-1.1
						C632.8,213.3,632.9,212.8,633,212.8z"/>
				</g>
			</g>
			<g>
				<g>
					<path class="st0" d="M633,208.3c0.1,0,0.2,0.5,0.2,1.1c0,0.6-0.1,1.1-0.2,1.1c-0.1,0-0.2-0.5-0.2-1.1
						C632.8,208.8,632.9,208.3,633,208.3z"/>
				</g>
			</g>
			<g>
				<g>
					<path class="st0" d="M633,203.9c0.1,0,0.2,0.5,0.2,1.1c0,0.6-0.1,1.1-0.2,1.1c-0.1,0-0.2-0.5-0.2-1.1
						C632.8,204.4,632.9,203.9,633,203.9z"/>
				</g>
			</g>
			<g>
				<g>
					<path class="st0" d="M633,199.4c0.1,0,0.2,0.5,0.2,1.1c0,0.6-0.1,1.1-0.2,1.1c-0.1,0-0.2-0.5-0.2-1.1
						C632.8,199.9,632.9,199.4,633,199.4z"/>
				</g>
			</g>
			<g>
				<g>
					<path class="st0" d="M636.9,198.9c0,0.1-0.5,0.2-1.1,0.2c-0.6,0-1.1-0.1-1.1-0.2c0-0.1,0.5-0.2,1.1-0.2
						C636.4,198.7,636.9,198.8,636.9,198.9z"/>
				</g>
			</g>
			<g>
				<g>
					<path class="st0" d="M641.4,198.9c0,0.1-0.5,0.2-1.1,0.2c-0.6,0-1.1-0.1-1.1-0.2c0-0.1,0.5-0.2,1.1-0.2
						C640.9,198.7,641.4,198.8,641.4,198.9z"/>
				</g>
			</g>
			<g>
				<g>
					<path class="st0" d="M645.9,198.9c0,0.1-0.5,0.2-1.1,0.2c-0.6,0-1.1-0.1-1.1-0.2c0-0.1,0.5-0.2,1.1-0.2
						C645.4,198.7,645.9,198.8,645.9,198.9z"/>
				</g>
			</g>
			<g>
				<g>
					<path class="st0" d="M650.3,198.9c0,0.1-0.5,0.2-1.1,0.2c-0.6,0-1.1-0.1-1.1-0.2c0-0.1,0.5-0.2,1.1-0.2
						C649.8,198.7,650.3,198.8,650.3,198.9z"/>
				</g>
			</g>
			<g>
				<g>
					<path class="st0" d="M654.8,198.9c0,0.1-0.5,0.2-1.1,0.2c-0.6,0-1.1-0.1-1.1-0.2c0-0.1,0.5-0.2,1.1-0.2
						C654.3,198.7,654.8,198.8,654.8,198.9z"/>
				</g>
			</g>
			<g>
				<g>
					<path class="st0" d="M659.2,198.9c0,0.1-0.5,0.2-1.1,0.2c-0.6,0-1.1-0.1-1.1-0.2c0-0.1,0.5-0.2,1.1-0.2
						C658.7,198.7,659.2,198.8,659.2,198.9z"/>
				</g>
			</g>
			<g>
				<g>
					<path class="st0" d="M663.7,198.9c0,0.1-0.5,0.2-1.1,0.2c-0.6,0-1.1-0.1-1.1-0.2c0-0.1,0.5-0.2,1.1-0.2
						C663.2,198.7,663.7,198.8,663.7,198.9z"/>
				</g>
			</g>
			<g>
				<g>
					<path class="st0" d="M668.2,198.9c0,0.1-0.5,0.2-1.1,0.2c-0.6,0-1.1-0.1-1.1-0.2c0-0.1,0.5-0.2,1.1-0.2
						C667.7,198.7,668.2,198.8,668.2,198.9z"/>
				</g>
			</g>
			<g>
				<g>
					<path class="st0" d="M672.6,198.9c0,0.1-0.5,0.2-1.1,0.2c-0.6,0-1.1-0.1-1.1-0.2c0-0.1,0.5-0.2,1.1-0.2
						C672.1,198.7,672.6,198.8,672.6,198.9z"/>
				</g>
			</g>
			<g>
				<g>
					<path class="st0" d="M677.1,198.9c0,0.1-0.5,0.2-1.1,0.2c-0.6,0-1.1-0.1-1.1-0.2c0-0.1,0.5-0.2,1.1-0.2
						C676.6,198.7,677.1,198.8,677.1,198.9z"/>
				</g>
			</g>
			<g>
				<g>
					<path class="st0" d="M681.5,198.9c0,0.1-0.5,0.2-1.1,0.2c-0.6,0-1.1-0.1-1.1-0.2c0-0.1,0.5-0.2,1.1-0.2
						C681,198.7,681.5,198.8,681.5,198.9z"/>
				</g>
			</g>
			<g>
				<g>
					<path class="st0" d="M686,198.9c0,0.1-0.5,0.2-1.1,0.2c-0.6,0-1.1-0.1-1.1-0.2c0-0.1,0.5-0.2,1.1-0.2
						C685.5,198.7,686,198.8,686,198.9z"/>
				</g>
			</g>
			<g>
				<g>
					<path class="st0" d="M690.5,198.9c0,0.1-0.5,0.2-1.1,0.2c-0.6,0-1.1-0.1-1.1-0.2c0-0.1,0.5-0.2,1.1-0.2
						C690,198.7,690.5,198.8,690.5,198.9z"/>
				</g>
			</g>
			<g>
				<g>
					<path class="st0" d="M694.9,198.9c0,0.1-0.5,0.2-1.1,0.2c-0.6,0-1.1-0.1-1.1-0.2c0-0.1,0.5-0.2,1.1-0.2
						C694.4,198.7,694.9,198.8,694.9,198.9z"/>
				</g>
			</g>
			<g>
				<g>
					<path class="st0" d="M699.4,198.9c0,0.1-0.5,0.2-1.1,0.2c-0.6,0-1.1-0.1-1.1-0.2c0-0.1,0.5-0.2,1.1-0.2
						C698.9,198.7,699.4,198.8,699.4,198.9z"/>
				</g>
			</g>
			<g>
				<g>
					<path class="st0" d="M703.8,198.9c0,0.1-0.5,0.2-1.1,0.2c-0.6,0-1.1-0.1-1.1-0.2c0-0.1,0.5-0.2,1.1-0.2
						C703.3,198.7,703.8,198.8,703.8,198.9z"/>
				</g>
			</g>
			<g>
				<g>
					<path class="st0" d="M708.3,198.9c0,0.1-0.5,0.2-1.1,0.2c-0.6,0-1.1-0.1-1.1-0.2c0-0.1,0.5-0.2,1.1-0.2
						C707.8,198.7,708.3,198.8,708.3,198.9z"/>
				</g>
			</g>
			<g>
				<g>
					<path class="st0" d="M712.5,199.1c0,0-0.1-0.1-0.1-0.3l0.1,0.1c-0.2,0-0.5,0.1-0.8,0.1c-0.6,0-1.1-0.1-1.1-0.2
						c0-0.1,0.5-0.2,1.1-0.2c0.3,0,0.6,0,0.8,0.1l0.1,0l0,0.1C712.6,199,712.5,199.1,712.5,199.1z"/>
				</g>
			</g>
			<g>
				<g>
					<ellipse class="st0" cx="712.5" cy="202.5" rx="0.2" ry="1.1"/>
				</g>
			</g>
			<g>
				<g>
					<ellipse class="st0" cx="712.5" cy="207" rx="0.2" ry="1.1"/>
				</g>
			</g>
			<g>
				<g>
					<ellipse class="st0" cx="712.5" cy="211.4" rx="0.2" ry="1.1"/>
				</g>
			</g>
			<g>
				<g>
					<ellipse class="st0" cx="712.5" cy="215.9" rx="0.2" ry="1.1"/>
				</g>
			</g>
			<g>
				<g>
					<path class="st0" d="M712.5,221.4c-0.1,0-0.2-0.5-0.2-1.1c0-0.6,0.1-1.1,0.2-1.1c0.1,0,0.2,0.5,0.2,1.1
						C712.7,220.9,712.6,221.4,712.5,221.4z"/>
				</g>
			</g>
			<g>
				<g>
					<path class="st0" d="M712.5,225.9c-0.1,0-0.2-0.5-0.2-1.1c0-0.6,0.1-1.1,0.2-1.1c0.1,0,0.2,0.5,0.2,1.1
						C712.7,225.4,712.6,225.9,712.5,225.9z"/>
				</g>
			</g>
			<g>
				<g>
					<path class="st0" d="M712.5,230.4c-0.1,0-0.2-0.5-0.2-1.1c0-0.6,0.1-1.1,0.2-1.1c0.1,0,0.2,0.5,0.2,1.1
						C712.7,229.9,712.6,230.4,712.5,230.4z"/>
				</g>
			</g>
			<g>
				<g>
					<path class="st0" d="M712.5,234.8c-0.1,0-0.2-0.5-0.2-1.1c0-0.6,0.1-1.1,0.2-1.1c0.1,0,0.2,0.5,0.2,1.1
						C712.7,234.3,712.6,234.8,712.5,234.8z"/>
				</g>
			</g>
			<g>
				<g>
					<ellipse class="st0" cx="712.5" cy="238.2" rx="0.2" ry="1.1"/>
				</g>
			</g>
			<g>
				<g>
					<ellipse class="st0" cx="712.5" cy="242.6" rx="0.2" ry="1.1"/>
				</g>
			</g>
			<g>
				<g>
					<ellipse class="st0" cx="712.5" cy="247.1" rx="0.2" ry="1.1"/>
				</g>
			</g>
			<g>
				<g>
					<ellipse class="st0" cx="712.5" cy="251.5" rx="0.2" ry="1.1"/>
				</g>
			</g>
			<g>
				<g>
					<ellipse class="st0" cx="712.5" cy="256" rx="0.2" ry="1.1"/>
				</g>
			</g>
			<g>
				<g>
					<path class="st0" d="M712.5,261.6c-0.1,0-0.2-0.5-0.2-1.1c0-0.6,0.1-1.1,0.2-1.1c0.1,0,0.2,0.5,0.2,1.1
						C712.7,261.1,712.6,261.6,712.5,261.6z"/>
				</g>
			</g>
			<g>
				<g>
					<path class="st0" d="M712.5,266c-0.1,0-0.2-0.5-0.2-1.1c0-0.6,0.1-1.1,0.2-1.1c0.1,0,0.2,0.5,0.2,1.1
						C712.7,265.5,712.6,266,712.5,266z"/>
				</g>
			</g>
			<g>
				<g>
					<path class="st0" d="M712.5,270.5c-0.1,0-0.2-0.5-0.2-1.1c0-0.6,0.1-1.1,0.2-1.1c0.1,0,0.2,0.5,0.2,1.1
						C712.7,270,712.6,270.5,712.5,270.5z"/>
				</g>
			</g>
			<g>
				<g>
					<path class="st0" d="M712.5,275c-0.1,0-0.2-0.5-0.2-1.1c0-0.6,0.1-1.1,0.2-1.1c0.1,0,0.2,0.5,0.2,1.1
						C712.7,274.5,712.6,275,712.5,275z"/>
				</g>
			</g>
		</g>
		<g>
			<rect x="709.5" y="274.6" class="st0" width="5.9" height="5.9"/>
		</g>
		<g>
			<rect x="630.1" y="275.4" class="st0" width="5.9" height="5.9"/>
		</g>
		<g>
			<rect x="709.5" y="195.3" class="st0" width="5.9" height="5.9"/>
		</g>
		<g>
			<rect x="630.1" y="195.9" class="st0" width="5.9" height="5.9"/>
		</g>
	</g>
</g>
<g id="Background_Simple" class="st1">
	<path class="st2" d="M660.9,134.9c1,4,1.7,7.9,2.2,12c7.8,70.7-28.9,141.8-87.2,183.7c-60.1,43.2-139.6,62.9-221,59.4
		c-61.3-2.6-128.7-28.1-167.2-65.9c-38.5-37.8-50.4-102.3-30.7-153.3c7.1-18.4,30-41.3,48.6-48.9c33.3-13.5,53.3-10.3,93.4,1.8
		c31.4,9.5,65.2,26.6,93.5,11.7c21.8-11.4,32.7-35.2,48.5-53.7c26.8-31.4,71.1-47.8,113.5-42.1c6.4,0.9,12.6,2.2,18.8,4
		C617.2,56.5,650.5,91.9,660.9,134.9L660.9,134.9z"/>
</g>
<g id="Floor">
	<g>
		<g>
			<path class="st3" d="M715.4,425.1c0,0.1-153.3,0.3-342.4,0.3c-189.2,0-342.4-0.1-342.4-0.3c0-0.1,153.3-0.3,342.4-0.3
				C562.1,424.8,715.4,424.9,715.4,425.1z"/>
		</g>
	</g>
</g>
<g id="Device_4">
	<g>
		<g>
			<g>
				<g>
					<g>
						<g>
							<path class="st3" d="M683.9,424.8h-92.6c-6.4,0-11.5-5.2-11.5-11.5V270.3c0-6.4,5.2-11.5,11.5-11.5h92.6
								c6.4,0,11.5,5.2,11.5,11.5v142.9C695.5,419.6,690.3,424.8,683.9,424.8z"/>
						</g>
					</g>
					<g>
						<g>
							<rect x="583.4" y="270.1" class="st4" width="108.2" height="138.7"/>
						</g>
					</g>
					<g>
						<g>
							<path class="st5" d="M642,416.4c0,2.5-2,4.4-4.4,4.4c-2.5,0-4.4-2-4.4-4.4c0-2.5,2-4.4,4.4-4.4C640.1,412,642,414,642,416.4z
								"/>
						</g>
					</g>
					<g>
						<g>
							<path class="st5" d="M654.1,265.4h-33c-0.5,0-0.9-0.4-0.9-0.9v0c0-0.5,0.4-0.9,0.9-0.9h33c0.5,0,0.9,0.4,0.9,0.9v0
								C655,265,654.6,265.4,654.1,265.4z"/>
						</g>
					</g>
				</g>
			</g>
		</g>
		<g>
			<g>
				<rect x="639.1" y="332.9" class="st5" width="43.3" height="28.3"/>
			</g>
			<g>
				<path class="st6" d="M645.3,338.5c0,1-0.8,1.7-1.7,1.7c-1,0-1.7-0.8-1.7-1.7c0-1,0.8-1.7,1.7-1.7
					C644.6,336.8,645.3,337.5,645.3,338.5z"/>
			</g>
			<g>
				<g>
					<path class="st6" d="M680.1,340l-1.4-1.4l-1.3,1.4l0-4l2.8,0L680.1,340z M678.6,338.4L678.6,338.4l1.3,1.3l0-3.7l-2.5,0l0,3.6
						L678.6,338.4z"/>
				</g>
			</g>
			<g>
				<g>
					<path class="st6" d="M669.1,337.6c0,0.1-4.8,0.3-10.6,0.3c-5.9,0-10.6-0.1-10.6-0.3c0-0.1,4.8-0.3,10.6-0.3
						C664.4,337.3,669.1,337.4,669.1,337.6z"/>
				</g>
			</g>
			<g>
				<g>
					<path class="st6" d="M656.1,340c0,0.1-1.8,0.3-4.1,0.3c-2.3,0-4.1-0.1-4.1-0.3s1.8-0.3,4.1-0.3
						C654.2,339.7,656.1,339.8,656.1,340z"/>
				</g>
			</g>
		</g>
		<g>
			<g>
				<path class="st7" d="M593.4,274.5c-3.2,0.6-6.6,0-9.9,0.5c0,0-0.1,0-0.1,0v22.7c10.2,1,20.2,3.6,30.3,5.3
					c13.5,2.4,28,3.2,40.3-2.7c10-4.7,17.5-13.4,26.7-19.4c3.4-2.2,7.1-4.1,10.9-5.6v-5.2h-92.4
					C598.4,272.3,595.9,274.1,593.4,274.5z M623.1,278.4c3.9,0,7,3.1,7,7c0,3.9-3.1,7-7,7s-7-3.1-7-7
					C616.1,281.5,619.2,278.4,623.1,278.4z"/>
			</g>
			<g>
				<g>
					<path class="st7" d="M654.1,300.3c-12.4,5.9-26.8,5.1-40.3,2.7c-10.1-1.8-20.2-4.3-30.3-5.3v15.9h108.2v-38.2
						c-3.8,1.5-7.4,3.3-10.9,5.6C671.6,287,664,295.6,654.1,300.3z M634,309.3c-0.3,0-0.6-0.3-0.6-0.6c0-0.3,0.3-0.6,0.6-0.6
						c0.3,0,0.6,0.3,0.6,0.6C634.6,309,634.3,309.3,634,309.3z M637.8,309.3c-0.3,0-0.6-0.3-0.6-0.6c0-0.3,0.3-0.6,0.6-0.6
						c0.3,0,0.6,0.3,0.6,0.6C638.4,309,638.1,309.3,637.8,309.3z M641.6,309.3c-0.3,0-0.6-0.3-0.6-0.6c0-0.3,0.3-0.6,0.6-0.6
						c0.3,0,0.6,0.3,0.6,0.6C642.2,309,641.9,309.3,641.6,309.3z"/>
				</g>
			</g>
			<g class="st8">
				<g>
					<path d="M654.1,300.3c-12.4,5.9-26.8,5.1-40.3,2.7c-10.1-1.8-20.2-4.3-30.3-5.3v15.9h108.2v-38.2c-3.8,1.5-7.4,3.3-10.9,5.6
						C671.6,287,664,295.6,654.1,300.3z M634,309.3c-0.3,0-0.6-0.3-0.6-0.6c0-0.3,0.3-0.6,0.6-0.6c0.3,0,0.6,0.3,0.6,0.6
						C634.6,309,634.3,309.3,634,309.3z M637.8,309.3c-0.3,0-0.6-0.3-0.6-0.6c0-0.3,0.3-0.6,0.6-0.6c0.3,0,0.6,0.3,0.6,0.6
						C638.4,309,638.1,309.3,637.8,309.3z M641.6,309.3c-0.3,0-0.6-0.3-0.6-0.6c0-0.3,0.3-0.6,0.6-0.6c0.3,0,0.6,0.3,0.6,0.6
						C642.2,309,641.9,309.3,641.6,309.3z"/>
				</g>
			</g>
			<g>
				<path class="st3" d="M634,308.1c-0.3,0-0.6,0.3-0.6,0.6c0,0.3,0.3,0.6,0.6,0.6c0.3,0,0.6-0.3,0.6-0.6
					C634.6,308.4,634.3,308.1,634,308.1z"/>
			</g>
			<g>
				<path class="st3" d="M637.8,308.1c-0.3,0-0.6,0.3-0.6,0.6c0,0.3,0.3,0.6,0.6,0.6c0.3,0,0.6-0.3,0.6-0.6
					C638.4,308.4,638.1,308.1,637.8,308.1z"/>
			</g>
			<g>
				<path class="st3" d="M641.6,308.1c-0.3,0-0.6,0.3-0.6,0.6c0,0.3,0.3,0.6,0.6,0.6c0.3,0,0.6-0.3,0.6-0.6
					C642.2,308.4,641.9,308.1,641.6,308.1z"/>
			</g>
			<g>
				<circle class="st7" cx="623.1" cy="285.4" r="7"/>
			</g>
			<g class="st8">
				<circle cx="623.1" cy="285.4" r="7"/>
			</g>
			<g>
				<path class="st7" d="M593.4,274.5c2.5-0.5,5-2.2,5.8-4.4h-15.8v4.9c0,0,0.1,0,0.1,0C586.8,274.5,590.2,275.2,593.4,274.5z"/>
			</g>
		</g>
		<g>
			<g>
				<path class="st3" d="M679.6,322.4c0,0.1-18.8,0.3-42.1,0.3c-23.2,0-42.1-0.1-42.1-0.3c0-0.1,18.8-0.3,42.1-0.3
					C660.8,322.1,679.6,322.2,679.6,322.4z"/>
			</g>
		</g>
		<g>
			<g>
				<path class="st3" d="M659.1,325.3c0,0.1-10.1,0.3-22.5,0.3c-12.4,0-22.5-0.1-22.5-0.3s10.1-0.3,22.5-0.3
					C649,325,659.1,325.1,659.1,325.3z"/>
			</g>
		</g>
		<g>
			<g>
				<g>
					<rect x="589.7" y="332.9" class="st7" width="43.3" height="28.3"/>
				</g>
				<g>
					<path class="st6" d="M596,338.5c0,1-0.8,1.7-1.7,1.7c-1,0-1.7-0.8-1.7-1.7c0-1,0.8-1.7,1.7-1.7
						C595.2,336.8,596,337.5,596,338.5z"/>
				</g>
				<g>
					<g>
						<path class="st6" d="M630.7,340l-1.4-1.4l-1.3,1.4l0-4l2.8,0L630.7,340z M629.3,338.4L629.3,338.4l1.3,1.3l0-3.7l-2.5,0l0,3.6
							L629.3,338.4z"/>
					</g>
				</g>
				<g>
					<g>
						<path class="st6" d="M619.8,337.6c0,0.1-4.8,0.3-10.6,0.3c-5.9,0-10.6-0.1-10.6-0.3c0-0.1,4.8-0.3,10.6-0.3
							C615,337.3,619.8,337.4,619.8,337.6z"/>
					</g>
				</g>
				<g>
					<g>
						<path class="st6" d="M606.7,340c0,0.1-1.8,0.3-4.1,0.3c-2.3,0-4.1-0.1-4.1-0.3s1.8-0.3,4.1-0.3
							C604.9,339.7,606.7,339.8,606.7,340z"/>
					</g>
				</g>
			</g>
			<g>
				<g>
					<path class="st3" d="M633.1,365c0,0.1-9.7,0.3-21.7,0.3c-12,0-21.7-0.1-21.7-0.3s9.7-0.3,21.7-0.3
						C623.4,364.8,633.1,364.9,633.1,365z"/>
				</g>
			</g>
			<g>
				<g>
					<path class="st3" d="M633.1,367.6c0,0.1-9.7,0.3-21.7,0.3c-12,0-21.7-0.1-21.7-0.3s9.7-0.3,21.7-0.3
						C623.4,367.3,633.1,367.4,633.1,367.6z"/>
				</g>
			</g>
			<g>
				<g>
					<path class="st3" d="M612.3,370.2c0,0.1-5.1,0.3-11.3,0.3c-6.2,0-11.3-0.1-11.3-0.3c0-0.1,5.1-0.3,11.3-0.3
						C607.3,369.9,612.3,370,612.3,370.2z"/>
				</g>
			</g>
		</g>
		<g>
			<g>
				<g>
					<rect x="589.7" y="375.1" class="st7" width="43.3" height="28.3"/>
				</g>
				<g>
					<path class="st6" d="M596,380.8c0,1-0.8,1.7-1.7,1.7c-1,0-1.7-0.8-1.7-1.7c0-1,0.8-1.7,1.7-1.7C595.2,379,596,379.8,596,380.8z
						"/>
				</g>
				<g>
					<g>
						<path class="st6" d="M630.7,382.2l-1.4-1.4l-1.3,1.4l0-4l2.8,0L630.7,382.2z M629.3,380.6L629.3,380.6l1.3,1.3l0-3.7l-2.5,0
							l0,3.6L629.3,380.6z"/>
					</g>
				</g>
				<g>
					<g>
						<path class="st6" d="M619.8,379.8c0,0.1-4.8,0.3-10.6,0.3c-5.9,0-10.6-0.1-10.6-0.3s4.8-0.3,10.6-0.3
							C615,379.6,619.8,379.7,619.8,379.8z"/>
					</g>
				</g>
				<g>
					<g>
						<path class="st6" d="M606.7,382.2c0,0.1-1.8,0.3-4.1,0.3c-2.3,0-4.1-0.1-4.1-0.3c0-0.1,1.8-0.3,4.1-0.3
							C604.9,382,606.7,382.1,606.7,382.2z"/>
					</g>
				</g>
			</g>
			<g>
				<g>
					<path class="st3" d="M633.1,407.3c0,0.1-9.7,0.3-21.7,0.3c-12,0-21.7-0.1-21.7-0.3s9.7-0.3,21.7-0.3
						C623.4,407,633.1,407.1,633.1,407.3z"/>
				</g>
			</g>
		</g>
		<g>
			<g>
				<g>
					<rect x="640.2" y="375.1" class="st5" width="43.3" height="28.3"/>
				</g>
				<g>
					<path class="st6" d="M646.5,380.8c0,1-0.8,1.7-1.7,1.7s-1.7-0.8-1.7-1.7c0-1,0.8-1.7,1.7-1.7S646.5,379.8,646.5,380.8z"/>
				</g>
				<g>
					<g>
						<path class="st6" d="M681.2,382.2l-1.4-1.4l-1.3,1.4l0-4l2.8,0L681.2,382.2z M679.8,380.6L679.8,380.6l1.3,1.3l0-3.7l-2.5,0
							l0,3.6L679.8,380.6z"/>
					</g>
				</g>
				<g>
					<g>
						<path class="st6" d="M670.3,379.8c0,0.1-4.8,0.3-10.6,0.3c-5.9,0-10.6-0.1-10.6-0.3s4.8-0.3,10.6-0.3
							C665.5,379.6,670.3,379.7,670.3,379.8z"/>
					</g>
				</g>
				<g>
					<g>
						<path class="st6" d="M657.2,382.2c0,0.1-1.8,0.3-4.1,0.3c-2.3,0-4.1-0.1-4.1-0.3c0-0.1,1.8-0.3,4.1-0.3
							C655.4,382,657.2,382.1,657.2,382.2z"/>
					</g>
				</g>
			</g>
			<g>
				<g>
					<path class="st3" d="M683.6,407.3c0,0.1-9.7,0.3-21.7,0.3c-12,0-21.7-0.1-21.7-0.3s9.7-0.3,21.7-0.3
						C673.9,407,683.6,407.1,683.6,407.3z"/>
				</g>
			</g>
		</g>
		<g>
			<g>
				<path class="st3" d="M683,365c0,0.1-9.7,0.3-21.7,0.3c-12,0-21.7-0.1-21.7-0.3s9.7-0.3,21.7-0.3C673.3,364.8,683,364.9,683,365z
					"/>
			</g>
		</g>
		<g>
			<g>
				<path class="st3" d="M683,367.6c0,0.1-9.7,0.3-21.7,0.3c-12,0-21.7-0.1-21.7-0.3s9.7-0.3,21.7-0.3
					C673.3,367.3,683,367.4,683,367.6z"/>
			</g>
		</g>
		<g>
			<g>
				<path class="st3" d="M662.2,370.2c0,0.1-5.1,0.3-11.3,0.3c-6.2,0-11.3-0.1-11.3-0.3c0-0.1,5.1-0.3,11.3-0.3
					C657.2,369.9,662.2,370,662.2,370.2z"/>
			</g>
		</g>
	</g>
	<g class="st8">
		<g>
			<path class="st4" d="M593.4,274.5c2.5-0.5,5-2.2,5.8-4.4h-15.8v4.9c0,0,0.1,0,0.1,0C586.8,274.5,590.2,275.2,593.4,274.5z"/>
		</g>
	</g>
</g>
<g id="Device_3">
	<g>
		<g>
			<g>
				<g>
					<g>
						<g>
							<path class="st3" d="M559.5,144.8H242.3c-5.5,0-9.9,4.4-9.9,9.9v224c0,5.5,4.4,9.9,9.9,9.9H364c0,0,7.7,23.9-16.3,36.3h113.8
								c0,0-27.1-9.3-20.1-36.3h118c5.5,0,9.9-4.4,9.9-9.9v-224C569.4,149.2,564.9,144.8,559.5,144.8z"/>
						</g>
					</g>
				</g>
				<g>
					<g>
						<g>
							<path class="st5" d="M405.1,365.1c4.3,6.2-2.4,12.9-8.6,8.6c-0.2-0.1-0.4-0.3-0.5-0.5c-4.3-6.2,2.4-12.9,8.6-8.6
								C404.8,364.7,405,364.9,405.1,365.1z"/>
						</g>
					</g>
				</g>
			</g>
			<g>
				<g>
					<g>
						<g>
							<g>
								<path class="st6" d="M558.3,349.2H242.8c-1.8,0-3.3-1.5-3.3-3.3V161.5c0-1.8,1.5-3.3,3.3-3.3h315.5c1.8,0,3.3,1.5,3.3,3.3
									V346C561.5,347.8,560.1,349.2,558.3,349.2z"/>
								<path class="st4" d="M558.3,349.7H242.8c-2.1,0-3.8-1.7-3.8-3.8V161.5c0-2.1,1.7-3.8,3.8-3.8h315.5c2.1,0,3.8,1.7,3.8,3.8
									V346C562,348,560.4,349.7,558.3,349.7z M242.8,158.7c-1.5,0-2.8,1.2-2.8,2.8V346c0,1.5,1.2,2.8,2.8,2.8h315.5
									c1.5,0,2.8-1.2,2.8-2.8V161.5c0-1.5-1.2-2.8-2.8-2.8H242.8z"/>
							</g>
						</g>
					</g>
					<g>
						<g>
							<g>
								<path class="st5" d="M266,165.6c0,1.4-1.2,2.6-2.6,2.6c-1.4,0-2.6-1.2-2.6-2.6s1.2-2.6,2.6-2.6
									C264.8,163,266,164.2,266,165.6z"/>
							</g>
						</g>
					</g>
					<g>
						<g>
							<g>
								<path class="st5" d="M250.4,165.6c0,1.4-1.2,2.6-2.6,2.6c-1.4,0-2.6-1.2-2.6-2.6s1.2-2.6,2.6-2.6
									C249.2,163,250.4,164.2,250.4,165.6z"/>
							</g>
						</g>
					</g>
					<g>
						<g>
							<g>
								<path class="st5" d="M257.9,165.6c0,1.4-1.2,2.6-2.6,2.6c-1.4,0-2.6-1.2-2.6-2.6s1.2-2.6,2.6-2.6
									C256.7,163,257.9,164.2,257.9,165.6z"/>
							</g>
						</g>
					</g>
				</g>
			</g>
		</g>
		<g>
			<g>
				<path class="st3" d="M461.6,263.1c0,0.1-26.7,0.3-59.7,0.3c-33,0-59.7-0.1-59.7-0.3c0-0.1,26.7-0.3,59.7-0.3
					C434.8,262.8,461.6,262.9,461.6,263.1z"/>
			</g>
		</g>
		<g>
			<g>
				<path class="st3" d="M432.5,267.2c0,0.1-14.3,0.3-32,0.3c-17.7,0-32-0.1-32-0.3c0-0.1,14.3-0.3,32-0.3
					C418.2,266.9,432.5,267.1,432.5,267.2z"/>
			</g>
		</g>
		<g>
			<g>
				<rect x="271.3" y="284.9" class="st7" width="76.2" height="49.7"/>
			</g>
			<g>
				<path class="st6" d="M282.4,294.7c0,1.7-1.4,3.1-3.1,3.1c-1.7,0-3.1-1.4-3.1-3.1s1.4-3.1,3.1-3.1
					C281,291.7,282.4,293.1,282.4,294.7z"/>
			</g>
			<g>
				<g>
					<path class="st6" d="M343.4,297.3l-2.5-2.5l-2.3,2.4l-0.1-7.1l4.8-0.1L343.4,297.3z M340.9,294.5L340.9,294.5l2.3,2.2l-0.1-6.5
						l-4.4,0l0.1,6.4L340.9,294.5z"/>
				</g>
			</g>
			<g>
				<g>
					<path class="st6" d="M324.2,293.1c0,0.1-8.4,0.3-18.7,0.3c-10.3,0-18.7-0.1-18.7-0.3s8.4-0.3,18.7-0.3
						C315.8,292.9,324.2,293,324.2,293.1z"/>
				</g>
			</g>
			<g>
				<g>
					<path class="st6" d="M301.2,297.3c0,0.1-3.2,0.3-7.2,0.3c-4,0-7.2-0.1-7.2-0.3c0-0.1,3.2-0.3,7.2-0.3
						C298,297.1,301.2,297.2,301.2,297.3z"/>
				</g>
			</g>
		</g>
		<g>
			<g>
				<rect x="363.8" y="284.9" class="st5" width="76.2" height="49.7"/>
			</g>
			<g>
				<g>
					<path class="st3" d="M439,340.4c0,0.1-16.5,0.3-36.8,0.3c-20.3,0-36.8-0.1-36.8-0.3c0-0.1,16.5-0.3,36.8-0.3
						C422.5,340.1,439,340.2,439,340.4z"/>
				</g>
			</g>
			<g>
				<circle class="st6" cx="371.8" cy="294.7" r="3.1"/>
			</g>
			<g>
				<g>
					<path class="st6" d="M435.8,297.3l-2.5-2.5l-2.3,2.4l-0.1-7.1l4.8-0.1L435.8,297.3z M433.3,294.5L433.3,294.5l2.3,2.2l-0.1-6.5
						l-4.4,0l0.1,6.4L433.3,294.5z"/>
				</g>
			</g>
			<g>
				<g>
					<path class="st6" d="M416.6,293.1c0,0.1-8.4,0.3-18.7,0.3c-10.3,0-18.7-0.1-18.7-0.3s8.4-0.3,18.7-0.3
						C408.3,292.9,416.6,293,416.6,293.1z"/>
				</g>
			</g>
			<g>
				<g>
					<path class="st6" d="M393.7,297.3c0,0.1-3.2,0.3-7.2,0.3c-4,0-7.2-0.1-7.2-0.3c0-0.1,3.2-0.3,7.2-0.3
						C390.4,297.1,393.7,297.2,393.7,297.3z"/>
				</g>
			</g>
		</g>
		<g>
			<g>
				<rect x="456.2" y="284.9" class="st7" width="76.2" height="49.7"/>
			</g>
			<g>
				<g>
					<path class="st3" d="M531.4,340.4c0,0.1-16.5,0.3-36.8,0.3c-20.3,0-36.8-0.1-36.8-0.3c0-0.1,16.5-0.3,36.8-0.3
						C514.9,340.1,531.4,340.2,531.4,340.4z"/>
				</g>
			</g>
			<g>
				<path class="st6" d="M467.2,294.7c0,1.7-1.4,3.1-3.1,3.1c-1.7,0-3.1-1.4-3.1-3.1s1.4-3.1,3.1-3.1
					C465.9,291.7,467.2,293.1,467.2,294.7z"/>
			</g>
			<g>
				<g>
					<path class="st6" d="M528.3,297.3l-2.5-2.5l-2.3,2.4l-0.1-7.1l4.8-0.1L528.3,297.3z M525.8,294.5L525.8,294.5l2.3,2.2l-0.1-6.5
						l-4.4,0l0.1,6.4L525.8,294.5z"/>
				</g>
			</g>
			<g>
				<g>
					<path class="st6" d="M509.1,293.1c0,0.1-8.4,0.3-18.7,0.3c-10.3,0-18.7-0.1-18.7-0.3s8.4-0.3,18.7-0.3
						C500.7,292.9,509.1,293,509.1,293.1z"/>
				</g>
			</g>
			<g>
				<g>
					<path class="st6" d="M486.1,297.3c0,0.1-3.2,0.3-7.2,0.3c-4,0-7.2-0.1-7.2-0.3c0-0.1,3.2-0.3,7.2-0.3
						C482.9,297.1,486.1,297.2,486.1,297.3z"/>
				</g>
			</g>
		</g>
		<g>
			<g>
				<g>
					<path class="st0" d="M559,310.4c0,5.8-4.7,10.6-10.6,10.6c-5.8,0-10.6-4.7-10.6-10.6c0-5.8,4.7-10.6,10.6-10.6
						C554.3,299.8,559,304.6,559,310.4z"/>
				</g>
				<g>
					<g>
						<path class="st3" d="M546.9,314.9c0,0,0.5-0.6,1.5-1.4c0.9-0.8,2.3-1.9,3.8-3.1l0,0.3c0,0,0,0-0.1-0.1
							c-1.5-1.3-2.8-2.4-3.7-3.3c-0.9-0.9-1.5-1.4-1.5-1.4c0,0,0.7,0.4,1.6,1.2c1,0.8,2.3,1.9,3.8,3.2c0,0,0.1,0,0.1,0.1l0.2,0.1
							l-0.2,0.1c-1.5,1.2-2.8,2.3-3.8,3C547.5,314.5,546.9,314.9,546.9,314.9z"/>
					</g>
				</g>
			</g>
			<g>
				<g>
					<path class="st0" d="M243.1,310.4c0-5.8,4.7-10.6,10.6-10.6c5.8,0,10.6,4.7,10.6,10.6c0,5.8-4.7,10.6-10.6,10.6
						C247.9,321,243.1,316.2,243.1,310.4z"/>
				</g>
				<g>
					<g>
						<path class="st3" d="M255.3,305.9c0,0-0.5,0.6-1.5,1.4c-0.9,0.8-2.3,1.9-3.8,3.1l0-0.3c0,0,0,0,0.1,0.1
							c1.5,1.3,2.8,2.4,3.7,3.3c0.9,0.9,1.5,1.4,1.5,1.4c0,0-0.7-0.4-1.6-1.2c-1-0.8-2.3-1.9-3.8-3.2c0,0-0.1,0-0.1-0.1l-0.2-0.1
							l0.2-0.1c1.5-1.2,2.8-2.3,3.8-3C254.7,306.3,255.3,305.9,255.3,305.9z"/>
					</g>
				</g>
			</g>
		</g>
	</g>
</g>
<g id="Character">
	<g>
		<g>
			<g>
				<path class="st7" d="M259.2,169l-0.4,12.5L259.2,169l96.2,3c0.7,5.1-4.6,9.2-9.7,10c-5.1,0.8-10.3-0.4-15.4,0.3
					c-10.2,1.3-18.1,9.4-27.6,13.4c-15.6,6.6-35.3,0.4-43.9-14.2l-1.9,64.8l0.1-3.3c11.1-18.3,34.6-26.6,56-26.6
					c21.4,0,42.1,6.5,63,10.8c20.9,4.3,43.5,6.2,63-2.4c15.7-6.9,27.9-20,42.5-29.1c29.7-18.4,69.9-18,99.3,0.8l-1.7,59L257,246.4
					l322.6,9.5l2.2-77.4L259.2,169z M391.1,211.1c-6-0.2-10.8-5.2-10.6-11.2c0.2-6,5.2-10.8,11.2-10.6c6,0.2,10.8,5.2,10.6,11.2
					C402.2,206.6,397.1,211.3,391.1,211.1z"/>
			</g>
			<g>
				<g>
					<path class="st7" d="M581,196.6c-29.4-18.8-69.6-19.2-99.3-0.8c-14.6,9-26.8,22.1-42.5,29.1c-19.5,8.6-42.1,6.7-63,2.4
						c-20.9-4.3-41.7-10.8-63-10.8c-21.4,0-44.9,8.3-56,26.6l-0.1,3.3l322.3,9.3L581,196.6z M409.7,241.7c-0.7,0-1.3-0.6-1.2-1.3
						c0-0.7,0.6-1.3,1.3-1.2c0.7,0,1.3,0.6,1.2,1.3C411,241.1,410.4,241.7,409.7,241.7z M417.7,241.9c-0.7,0-1.3-0.6-1.2-1.3
						c0-0.7,0.6-1.3,1.3-1.2c0.7,0,1.3,0.6,1.2,1.3C419,241.4,418.4,241.9,417.7,241.9z M425.7,242.1c-0.7,0-1.3-0.6-1.2-1.3
						c0-0.7,0.6-1.3,1.3-1.2c0.7,0,1.3,0.6,1.2,1.3C427,241.6,426.4,242.2,425.7,242.1z M549.2,221.3c-1.4,1.3-3.7,1.3-5-0.1
						c-1.3-1.4-1.3-3.7,0.1-5c1.4-1.3,3.7-1.3,5,0.1C550.7,217.7,550.7,220,549.2,221.3z"/>
				</g>
			</g>
			<g class="st8">
				<g>
					<path d="M581,196.6c-29.4-18.8-69.6-19.2-99.3-0.8c-14.6,9-26.8,22.1-42.5,29.1c-19.5,8.6-42.1,6.7-63,2.4
						c-20.9-4.3-41.7-10.8-63-10.8c-21.4,0-44.9,8.3-56,26.6l-0.1,3.3l322.3,9.3L581,196.6z M409.7,241.7c-0.7,0-1.3-0.6-1.2-1.3
						c0-0.7,0.6-1.3,1.3-1.2c0.7,0,1.3,0.6,1.2,1.3C411,241.1,410.4,241.7,409.7,241.7z M417.7,241.9c-0.7,0-1.3-0.6-1.2-1.3
						c0-0.7,0.6-1.3,1.3-1.2c0.7,0,1.3,0.6,1.2,1.3C419,241.4,418.4,241.9,417.7,241.9z M425.7,242.1c-0.7,0-1.3-0.6-1.2-1.3
						c0-0.7,0.6-1.3,1.3-1.2c0.7,0,1.3,0.6,1.2,1.3C427,241.6,426.4,242.2,425.7,242.1z M549.2,221.3c-1.4,1.3-3.7,1.3-5-0.1
						c-1.3-1.4-1.3-3.7,0.1-5c1.4-1.3,3.7-1.3,5,0.1C550.7,217.7,550.7,220,549.2,221.3z"/>
				</g>
			</g>
			<g>
				<path class="st3" d="M409.7,239.1c-0.7,0-1.3,0.5-1.3,1.2c0,0.7,0.5,1.3,1.2,1.3c0.7,0,1.3-0.5,1.3-1.2
					C411,239.7,410.4,239.2,409.7,239.1z"/>
			</g>
			<g>
				<path class="st3" d="M417.8,239.4c-0.7,0-1.3,0.5-1.3,1.2c0,0.7,0.5,1.3,1.2,1.3c0.7,0,1.3-0.5,1.3-1.2
					C419,240,418.5,239.4,417.8,239.4z"/>
			</g>
			<g>
				<path class="st3" d="M425.8,239.6c-0.7,0-1.3,0.5-1.3,1.2c0,0.7,0.5,1.3,1.2,1.3c0.7,0,1.3-0.5,1.3-1.2
					C427.1,240.2,426.5,239.6,425.8,239.6z"/>
			</g>
			<g>
				<path class="st7" d="M302.7,195.7c9.5-4,17.4-12.2,27.6-13.4c5.1-0.6,10.3,0.6,15.4-0.3c5.1-0.8,10.4-4.9,9.7-10l-96.2-3
					l-0.4,12.5l0,0.1l0,0C267.5,196.1,287.2,202.3,302.7,195.7z"/>
			</g>
			<g class="st8">
				<g>
					<path class="st4" d="M302.7,195.7c9.5-4,17.4-12.2,27.6-13.4c5.1-0.6,10.3,0.6,15.4-0.3c5.1-0.8,10.4-4.9,9.7-10l-96.2-3
						l-0.4,12.5l0,0.1l0,0C267.5,196.1,287.2,202.3,302.7,195.7z"/>
				</g>
			</g>
			<g>
				<path class="st7" d="M391.7,189.3c-6-0.2-11,4.6-11.2,10.6c-0.2,6,4.6,11,10.6,11.2c6,0.2,11-4.6,11.2-10.6
					C402.5,194.5,397.8,189.5,391.7,189.3z"/>
			</g>
			<g class="st8">
				<path d="M391.7,189.3c-6-0.2-11,4.6-11.2,10.6c-0.2,6,4.6,11,10.6,11.2c6,0.2,11-4.6,11.2-10.6
					C402.5,194.5,397.8,189.5,391.7,189.3z"/>
			</g>
			<g>
				<path class="st7" d="M544.4,216.1c-1.4,1.3-1.5,3.6-0.1,5c1.3,1.4,3.6,1.5,5,0.1c1.4-1.3,1.5-3.6,0.1-5
					C548,214.9,545.8,214.8,544.4,216.1z"/>
			</g>
		</g>
		<g>
			<g>
				<g>
					<path class="st3" d="M532.4,256.1c2.7-4.5,3.4-10.4,4.1-15.6c0.3-2.4,0.9-5.9-0.8-7.4c-1.8-1.6-2-4.1-4.1-5.4
						c-2.1-1.3-5-1.4-6.9,0.1"/>
				</g>
				<g>
					<g>
						<g>
							<g>
								<g>
									<g>
										<g>
											<g>
												<path class="st9" d="M525,271.9L525,271.9c-4.1,0.3-7.6-2.8-7.7-6.9c-0.2-3.9-0.3-7.9-0.3-7.9s-5.9-0.6-6.4-6.4
													c-0.4-5.9-0.2-19.4-0.2-19.4l0,0c6.6-3.3,14.5-2.8,20.7,1.3l-0.4,20.7v11.1C530.6,268.1,528.7,271.6,525,271.9z"/>
											</g>
										</g>
									</g>
								</g>
							</g>
						</g>
						<g>
							<path class="st3" d="M516.5,243.5c1-1.3,2.7-1.8,4-0.9c1.4,0.9,1.9,2.8,1.1,4.3c-0.5,1-1.7,1.9-2.9,2.2
								c-1.1,0.2-1.9,1.3-1.8,2.4c0.2,1.5,2.6,2,3.7,3.2c1.7,1.9,5.5,2.7,8,3c2.5,0.3,2.2,0.3,3.7-1.7c1.1-1.5,1.4-2.9,1.4-4.8
								c0.1-4.3,0.2-8.7,0.3-13c0-1.6,0.1-3.1-0.3-4.7c-0.4-1.5-1.2-3-2.5-3.9c-1.4-0.9-3.2-1-4.9-1.5c-2-0.7-3.8-2-5.7-3
								c-1.9-1-4.2-1.6-6.1-0.6c-1.4,0.7-2.3,2.1-3.6,2.8c-1.9,1.1-4.5,0.8-5.4,3.6c-0.3,1-0.3,2,0,3c1.3,3.8,6,5.3,9.4,3.7
								c0.1,0.6-0.6,2.1,0.1,4.1C515.4,242.5,515.4,243.5,516.5,243.5"/>
						</g>
					</g>
					<g>
						<g>
							<path class="st10" d="M517.5,247.2c0.1,0,0.3,0.3,0.7,0.2c0.4,0,1-0.6,1.1-1.3c0.1-0.7-0.5-1.3-1-1.4
								c-0.5-0.2-0.8-0.1-0.8-0.2c0-0.1,0.3-0.3,0.9-0.2c0.3,0.1,0.7,0.2,0.9,0.5c0.3,0.3,0.5,0.8,0.4,1.3c0,1-0.9,1.7-1.6,1.7
								c-0.3,0-0.6-0.2-0.7-0.3C517.5,247.3,517.5,247.2,517.5,247.2z"/>
						</g>
					</g>
					<g>
						<path class="st3" d="M534.4,239.7c1-1.9,2.9-3.5,5-3.8c2.2-0.4,4.5,0.4,5.9,2.1c1.3,1.7,1.5,4.3,0.3,6.1
							c-1.4,2.1-4.1,2.7-6.6,3c1.8,2.1,4.5,3.4,7.2,3.5c-2,1.3-4.6,1.5-6.7,0.3c1.3,1.1,2.7,2.3,4,3.4c-4,1-8.6-1.2-10.3-5
							c-1.7-3.8-0.4-8.7,3-11.1"/>
					</g>
					<g>
						<g>
							<path class="st7" d="M538.1,246.9c0,0-0.8,0.5-2.1,0c-1.3-0.5-2.7-2-2.9-4.1c-0.1-1,0-2,0.3-2.8c0.3-0.8,0.8-1.5,1.3-1.9
								c1-0.9,1.8-1.1,1.8-1.1c0,0.1-0.7,0.4-1.6,1.3c-0.8,0.9-1.7,2.5-1.4,4.4c0.3,1.9,1.5,3.3,2.6,3.8
								C537.3,247.1,538.1,246.8,538.1,246.9z"/>
						</g>
					</g>
					<g>
						<g>
							<path class="st5" d="M546.7,241c-0.1,0.1-0.5-0.7-1.7-1.1c-1.1-0.5-2.9-0.5-4.8-0.2c-1.9,0.4-3.4,1.2-4.5,1.9
								c-1,0.7-1.6,1.3-1.7,1.2c0,0,0.4-0.7,1.4-1.5c1-0.8,2.6-1.7,4.6-2.1c1.9-0.4,3.8-0.3,5,0.3C546.4,240.1,546.7,241,546.7,241z
								"/>
						</g>
					</g>
					<g>
						<g>
							<path class="st5" d="M544.9,244.9c0,0.1-0.5,0.3-1.4,0.4c-0.9,0.1-2.2,0-3.5-0.6c-1.3-0.6-2.2-1.6-2.7-2.3
								c-0.5-0.8-0.7-1.3-0.6-1.3c0.1,0,0.3,0.5,0.9,1.1c0.6,0.7,1.5,1.5,2.7,2.1c1.2,0.6,2.4,0.7,3.3,0.7
								C544.3,245,544.9,244.9,544.9,244.9z"/>
						</g>
					</g>
					<g>
						<g>
							<path class="st5" d="M535.9,252.8c0,0.1-0.7-0.2-1.5-1c-0.8-0.7-1.8-2.1-2.3-3.8c-0.4-1.7-0.2-3.3,0.2-4.4
								c0.4-1.1,0.8-1.6,0.9-1.6c0.1,0-0.3,0.6-0.5,1.7c-0.3,1-0.4,2.6,0,4.2c0.4,1.6,1.3,2.9,2,3.6
								C535.4,252.4,536,252.7,535.9,252.8z"/>
						</g>
					</g>
					<g>
						<g>
							<path class="st5" d="M523.6,229.5c-0.1,0,0.6-1,2.3-1.2c0.8-0.1,1.8,0,2.8,0.4c1,0.5,1.9,1.3,2.6,2.3c1.4,2.1,1.6,4.4,1.8,6
								c0.1,1.6,0.2,2.6,0.1,2.6c-0.1,0-0.3-1-0.5-2.5c-0.3-1.5-0.6-3.8-1.9-5.7c-0.6-1-1.5-1.7-2.4-2.2c-0.9-0.4-1.8-0.6-2.6-0.5
								C524.4,228.8,523.7,229.6,523.6,229.5z"/>
						</g>
					</g>
					<g>
						<g>
							<path class="st5" d="M507.1,235.5c0,0-0.3,0-0.8-0.3c-0.4-0.3-1.1-1.1-0.9-2.1c0.1-0.5,0.4-1,1-1.4c0.5-0.4,1.3-0.4,1.9-0.4
								c0.6,0,1.2,0,1.7-0.4c0.5-0.4,0.9-1,1.4-1.5c1-1.1,2.4-1.8,3.7-2.1c1.3-0.3,2.5-0.3,3.5-0.1c1,0.2,1.7,0.5,2.2,0.8
								c0.5,0.3,0.7,0.5,0.7,0.5c-0.1,0.1-1-0.7-2.9-1c-0.9-0.2-2.1-0.2-3.3,0.2c-1.2,0.3-2.4,1-3.4,2c-0.5,0.5-0.9,1.1-1.5,1.6
								c-0.3,0.2-0.7,0.4-1,0.5c-0.4,0.1-0.7,0.1-1,0.1c-0.6,0-1.2,0-1.6,0.3c-0.4,0.3-0.7,0.7-0.8,1.1c-0.2,0.9,0.3,1.6,0.6,1.9
								C506.8,235.4,507.1,235.5,507.1,235.5z"/>
						</g>
					</g>
					<g>
						<g>
							<path class="st5" d="M522.8,251.8c0,0,0.3-0.2,0.8-0.5c0.5-0.3,1.1-0.9,1.6-1.8c0.5-0.9,0.7-2.2,0.3-3.4
								c-0.2-0.6-0.6-1.2-1.1-1.7c-0.5-0.5-1.1-0.9-1.8-1.3c-0.7-0.4-1.4-0.8-2-1.2c-0.6-0.4-1.2-1-1.6-1.5
								c-0.9-1.2-1.3-2.4-1.4-3.5c-0.1-1.1,0-1.9,0.2-2.5c0.2-0.6,0.4-0.9,0.4-0.8c0.1,0-0.5,1.3-0.2,3.3c0.1,1,0.6,2.2,1.4,3.3
								c0.8,1.1,2.1,1.8,3.5,2.6c0.7,0.4,1.4,0.9,1.9,1.4c0.6,0.6,0.9,1.3,1.2,2c0.4,1.4,0.2,2.8-0.4,3.7c-0.5,1-1.3,1.5-1.8,1.8
								C523.1,251.8,522.8,251.9,522.8,251.8z"/>
						</g>
					</g>
					<g>
						<g>
							<path class="st5" d="M533,243.2c0,0-0.3,0.1-0.8,0.2c-0.5,0.1-1.2,0.1-2.1,0.1c-1.8-0.1-4.3-0.7-6.6-2.2
								c-2.3-1.5-3.9-3.7-4.3-5.4c-0.2-0.9-0.2-1.6-0.1-2.1c0.1-0.5,0.3-0.7,0.3-0.7c0.1,0-0.4,1.1,0.1,2.8c0.5,1.6,2.1,3.6,4.2,5.1
								c2.2,1.5,4.6,2.1,6.3,2.3C531.9,243.3,533,243.1,533,243.2z"/>
						</g>
					</g>
				</g>
			</g>
			<g>
				<g>
					<polygon class="st7" points="512.6,442.6 509.7,448.7 522.8,448.6 523.4,442 					"/>
				</g>
				<g>
					<g>
						<path class="st3" d="M523,447.3c0,0.1-0.7,0.1-1.9,0.2c-1.2,0-2.8,0-4.6,0c-1.7-0.1-3.3-0.1-4.6-0.1c-1.2,0-1.9-0.1-1.9-0.1
							c0-0.1,0.7-0.1,1.9-0.1c1.2,0,2.8,0,4.6,0c1.7,0.1,3.3,0.1,4.6,0.1C522.3,447.2,523,447.3,523,447.3z"/>
					</g>
				</g>
				<g>
					<g>
						<path class="st3" d="M517.4,441.8c0.1,0,0.1,1.2,0.1,2.8c-0.1,1.5-0.2,2.7-0.4,2.7c-0.1,0-0.1-1.2-0.1-2.8
							C517.2,443,517.3,441.8,517.4,441.8z"/>
					</g>
				</g>
				<g class="st11">
					<polyline class="st4" points="509.7,448.9 522.8,448.4 522.9,447.2 510.4,447.3 509.7,448.7 					"/>
				</g>
			</g>
			<g>
				<path class="st9" d="M569.6,445.1l-20.4-117.2l0,0c0-0.2-0.1-0.3-0.1-0.5l0,0l0,0c-3.5-13.8-6.2-17.2-6.2-17.2l-33.9,0.9
					c-2.7,4.8-3,16.2-3,16.2c-0.4,1.4,6.6,115.2,6.6,115.2l10.5-0.3l5.7-107.7L559,445.3L569.6,445.1z"/>
			</g>
			<g>
				<path class="st9" d="M456,252.1c-0.1-2.1,0.8-6.2,1.3-6.5c0.5-0.3,1.1,0.3,0.9,0.9c-0.2,0.5-0.3,1.4-0.3,2.1
					c0,0.6,0,1.2,0.2,1.7c0.1,0.5,0.3,0.9,0.4,1.3l0.2,0.7l22.4,20l14-0.9l2.8,14.3l-22.8-2L451.7,258l0,0c-2-1.4-4-3.2-5.3-4
					c-2.3-1.5-1.6-1.9-1.4-2.2L456,252.1z"/>
			</g>
			<g>
				<path class="st9" d="M581.7,240.2l-13.9,28.5l-14,6l-5.2-12.6l10.2-2.7l16-25.5l0-0.7c0-0.4,0-0.8,0-1.3c0-0.6-0.1-1.2-0.3-1.7
					c-0.2-0.7-0.6-1.5-0.9-2c-0.4-0.5,0-1.3,0.6-1.1c0.6,0.2,1.7,1.6,2.2,3.6c0.5,2.1,1.9-0.9,2.4-2c0.5-1.1,2.3-4.4,2.8-4.5
					c0.7-0.1,1,0.6,0.4,1.6c-0.6,1.1-2,4.4-1.4,4.7l1-0.1l0.8,3.9C582.9,236.3,582.6,238.4,581.7,240.2z"/>
			</g>
			<g>
				<g>
					<g>
						<g>
							<g>
								<g>
									<path class="st7" d="M572.6,446.2l-0.1-1.3l-13.5,0.4l0.1,4.4l0.8,0c3.7,0.1,18.9,0.2,21.4-0.5
										C584.1,448.3,572.6,446.2,572.6,446.2z"/>
								</g>
							</g>
						</g>
						<g class="st11">
							<g>
								<g>
									<path class="st4" d="M564,449.4c-0.2-1-0.9-2-1.8-2.6c-0.9-0.6-2-0.9-3.2-0.8l0.1,3.5L564,449.4z"/>
								</g>
							</g>
						</g>
					</g>
					<g class="st11">
						<g>
							<g>
								<path class="st4" d="M578.2,447.4c0,0,4,1,3.6,1.6c-0.5,0.6-15.9,1-22.7,0.7l0-0.3l17.9-0.3
									C577.1,449.1,577.4,447.5,578.2,447.4z"/>
							</g>
						</g>
					</g>
					<g>
						<g>
							<g>
								<g>
									<path class="st3" d="M558.9,449.4c0,0,0.1,0,0.2,0c0.2,0,0.4,0,0.7,0c0.7,0,1.5,0,2.5,0c2.1,0,4.9,0,8.1-0.1
										c3.2-0.1,6-0.2,8.1-0.3c1-0.1,1.8-0.1,2.4-0.2c0.2,0,0.5,0,0.7-0.1c0.2,0,0.2,0,0.2,0c0,0-0.1,0-0.2,0c-0.2,0-0.4,0-0.7,0
										c-0.7,0-1.5,0.1-2.4,0.1c-2.1,0.1-4.9,0.2-8.1,0.3c-3.2,0.1-6,0.1-8.1,0.1c-1,0-1.8,0-2.5,0c-0.2,0-0.5,0-0.7,0
										C559,449.4,558.9,449.4,558.9,449.4z"/>
								</g>
							</g>
						</g>
					</g>
					<g>
						<g>
							<g>
								<g>
									<path class="st3" d="M577.1,449.3c0,0,0.1-0.5,0.4-1.1c0.3-0.6,0.8-0.9,0.8-0.9c0,0-0.6,0.2-0.9,0.8
										C577,448.7,577,449.3,577.1,449.3z"/>
								</g>
							</g>
						</g>
					</g>
					<g>
						<g>
							<g>
								<g>
									<path class="st3" d="M573,447.5c0,0,0.2-0.2,0.4-0.5c0.2-0.3,0.3-0.5,0.3-0.6c0,0-0.2,0.2-0.4,0.5
										C573.1,447.2,573,447.5,573,447.5z"/>
								</g>
							</g>
						</g>
					</g>
					<g>
						<g>
							<g>
								<g>
									<path class="st3" d="M571.9,447c0,0,0.2-0.1,0.5-0.3c0.2-0.2,0.4-0.4,0.4-0.4c0,0-0.2,0.1-0.5,0.3
										C572,446.8,571.9,446.9,571.9,447z"/>
								</g>
							</g>
						</g>
					</g>
					<g>
						<g>
							<g>
								<g>
									<path class="st3" d="M571.2,445.8c0,0,0.3,0.1,0.7,0.1c0.4,0,0.7,0,0.7-0.1c0,0-0.3-0.1-0.7-0.1
										C571.5,445.7,571.2,445.8,571.2,445.8z"/>
								</g>
							</g>
						</g>
					</g>
					<g>
						<g>
							<g>
								<g>
									<path class="st3" d="M570.9,445c0,0,0.3,0.2,0.8,0.2c0.5,0,0.8-0.1,0.8-0.1c0,0-0.4,0-0.8,0
										C571.3,445,570.9,444.9,570.9,445z"/>
								</g>
							</g>
						</g>
					</g>
					<g>
						<g>
							<g>
								<g>
									<path class="st3" d="M573.5,446.4c0,0,0.3,0,0.9,0c0.3,0,0.6-0.1,0.9-0.2c0.2-0.1,0.3-0.1,0.5-0.2c0.1-0.1,0.2-0.1,0.2-0.3
										c0-0.1,0-0.3-0.1-0.3c-0.8-0.4-1.7,0.1-1.9,0.5c-0.2,0.2-0.2,0.4-0.3,0.5c0,0.1,0,0.2,0,0.2c0,0,0-0.3,0.4-0.7
										c0.2-0.2,0.4-0.4,0.7-0.5c0.3-0.1,0.7-0.1,1,0c0.1,0.1,0.1,0.2-0.1,0.3c-0.1,0.1-0.3,0.1-0.5,0.2c-0.3,0.1-0.6,0.2-0.9,0.2
										C573.8,446.3,573.5,446.4,573.5,446.4z"/>
								</g>
							</g>
						</g>
					</g>
					<g>
						<g>
							<g>
								<g>
									<path class="st3" d="M573.7,446.4c0,0,0.1-0.2,0.1-0.6c0-0.2-0.1-0.4-0.3-0.6c-0.2-0.2-0.4-0.4-0.7-0.4
										c-0.2,0-0.3,0.2-0.3,0.4c0,0.1,0.1,0.3,0.2,0.4c0.1,0.2,0.3,0.4,0.4,0.5C573.4,446.3,573.6,446.4,573.7,446.4
										c-0.1,0-0.2-0.2-0.5-0.4c-0.1-0.1-0.3-0.3-0.4-0.5c-0.1-0.2-0.2-0.5,0-0.5c0.2,0,0.4,0.2,0.6,0.3c0.1,0.2,0.2,0.4,0.3,0.5
										C573.7,446.2,573.6,446.4,573.7,446.4z"/>
								</g>
							</g>
						</g>
					</g>
					<g>
						<g>
							<g>
								<g>
									<path class="st3" d="M559.1,446c0,0,0.4,0,1,0c0.6,0,1.5,0.3,2.2,0.8c0.7,0.5,1.2,1.2,1.4,1.7c0.2,0.5,0.3,0.9,0.3,0.9
										c0,0,0-0.1,0-0.3c0-0.2-0.1-0.4-0.2-0.7c-0.2-0.6-0.6-1.3-1.4-1.8c-0.8-0.5-1.7-0.7-2.3-0.8c-0.3,0-0.6,0-0.7,0
										C559.2,445.9,559.1,445.9,559.1,446z"/>
								</g>
							</g>
						</g>
					</g>
					<g>
						<g>
							<g>
								<g>
									<path class="st3" d="M565.6,448.2c0,0,0.9,0.2,2,0.1c1.1,0,2-0.2,2-0.2c0,0-0.9,0-2,0C566.5,448.2,565.6,448.1,565.6,448.2
										z"/>
								</g>
							</g>
						</g>
					</g>
					<g>
						<g>
							<g>
								<g>
									<path class="st3" d="M563,448.2c0,0,0.1,0.2,0.2,0.4c0.1,0.2,0.1,0.4,0.2,0.3c0,0,0.1-0.2,0-0.4
										C563.2,448.3,563,448.2,563,448.2z"/>
								</g>
							</g>
						</g>
					</g>
					<g>
						<g>
							<g>
								<g>
									<path class="st3" d="M562,447.1c0,0,0.1,0.2,0.2,0.3c0.1,0.1,0.3,0.2,0.3,0.2c0,0-0.1-0.2-0.2-0.3
										C562.1,447.2,562,447.1,562,447.1z"/>
								</g>
							</g>
						</g>
					</g>
					<g>
						<g>
							<g>
								<g>
									<path class="st3" d="M560.5,446.6c0,0,0.2,0,0.4,0.1c0.2,0.1,0.3,0.2,0.4,0.1c0,0-0.1-0.2-0.3-0.3
										C560.7,446.5,560.5,446.6,560.5,446.6z"/>
								</g>
							</g>
						</g>
					</g>
					<g>
						<g>
							<g>
								<g>
									<path class="st3" d="M559.5,446.4c0,0,0.1,0.1,0.2,0.1c0.1,0,0.2,0,0.2,0c0,0-0.1-0.1-0.2-0.1
										C559.6,446.4,559.5,446.4,559.5,446.4z"/>
								</g>
							</g>
						</g>
					</g>
				</g>
			</g>
			<g>
				<g>
					<path class="st3" d="M539.8,285.3l0.4-1.5c1-0.6,13.3-8.3,13.7-8.3c0.5-0.1-5.4-14-5.4-14l-13.9,2c-1.4-0.4-3.9-0.5-3.9-0.5
						l-13.2-0.1c0,0-5.9,0.7-7.8,2.1l-14.8,5.6l3.3,17.2l12.9-2.3c-0.6,1.8,0,4.8,0.5,8.3c0.7,4.3,1,10.3-1.2,14
						c0,0-2.7,9.4-2.7,16.9l37.9-4.4c0,0-0.1-8.1-7.6-17.8l0.4-10.2L539.8,285.3z"/>
				</g>
				<g>
					<g>
						<path class="st6" d="M512.3,280.9c-0.1,0-0.3-1.2-0.6-3.3l0.3,0.1c-1,0.8-2.2,1.7-3.6,2.7l-0.4,0.3l0-0.4
							c-0.1-1.1-0.2-2.3-0.3-3.6l0.4,0.2c-0.1,0-0.1,0.1-0.2,0.1c-1.4,0.9-2.7,1.8-3.9,2.6l-0.3,0.2l-0.1-0.3
							c-0.4-1.2-0.6-2.4-0.6-3.4l0.3,0.2c-0.9,0.4-1.6,1-1.9,1.5c-0.4,0.4-0.5,0.7-0.6,0.7c0,0,0.1-0.3,0.4-0.8
							c0.3-0.5,0.9-1.2,1.9-1.7l0.2-0.1l0,0.3c0.1,1,0.3,2.1,0.7,3.2l-0.4-0.1c1.2-0.8,2.5-1.7,3.9-2.7c0.1,0,0.1-0.1,0.2-0.1
							l0.4-0.2l0,0.4c0.1,1.2,0.2,2.4,0.3,3.6l-0.4-0.2c1.4-0.9,2.6-1.8,3.6-2.5l0.3-0.2l0,0.3C512.3,279.7,512.4,280.9,512.3,280.9
							z"/>
					</g>
				</g>
				<g>
					<g>
						<path class="st6" d="M531.3,274.5c-0.1,0-0.9-0.9-2.3-2.4l0.3,0c-0.5,1.2-1,2.6-1.6,4.2l-0.2,0.4l-0.3-0.4
							c-0.7-0.9-1.4-1.8-2.2-2.8l0.4-0.1c0,0.1-0.1,0.1-0.1,0.2c-0.7,1.5-1.3,3-1.9,4.3l-0.1,0.3l-0.2-0.2c-1-0.8-1.8-1.7-2.3-2.5
							l0.3,0c-0.6,0.9-0.8,1.7-0.8,2.3c-0.1,0.6-0.1,0.9-0.1,0.9c0,0-0.1-0.3-0.1-0.9c0-0.6,0.2-1.5,0.7-2.4l0.1-0.2l0.2,0.2
							c0.6,0.8,1.4,1.6,2.3,2.3l-0.4,0.1c0.6-1.3,1.2-2.8,1.9-4.4c0-0.1,0.1-0.1,0.1-0.2l0.2-0.4l0.3,0.4c0.8,1,1.5,2,2.1,2.9
							l-0.4,0.1c0.6-1.5,1.2-2.9,1.7-4.1l0.1-0.3l0.2,0.2C530.6,273.4,531.4,274.5,531.3,274.5z"/>
					</g>
				</g>
				<g>
					<g>
						<path class="st6" d="M515.2,285.1c0.1,0-0.3,1.2-1,3.2l-0.2-0.2c1.3-0.2,2.8-0.5,4.4-0.8l0.4-0.1l-0.2,0.4
							c-0.4,1-0.9,2.2-1.3,3.3l-0.3-0.4c0.1,0,0.1,0,0.2,0c1.7-0.2,3.3-0.4,4.7-0.6l0.3,0l0,0.3c-0.2,1.3-0.6,2.4-1,3.3l-0.2-0.3
							c1,0,1.8-0.2,2.4-0.4c0.5-0.2,0.8-0.4,0.8-0.4c0,0-0.2,0.3-0.7,0.6c-0.5,0.3-1.4,0.6-2.5,0.6l-0.3,0l0.1-0.3
							c0.3-0.9,0.7-2,0.8-3.2l0.3,0.3c-1.4,0.2-3,0.4-4.7,0.6c-0.1,0-0.1,0-0.2,0l-0.4,0.1l0.2-0.4c0.5-1.2,0.9-2.3,1.4-3.3l0.3,0.3
							c-1.6,0.2-3.1,0.5-4.4,0.6l-0.3,0l0.1-0.3C514.6,286.3,515.1,285.1,515.2,285.1z"/>
					</g>
				</g>
				<g>
					<g>
						<path class="st6" d="M537.5,266.1c0.1,0-0.3,1.2-1,3.2l-0.2-0.2c1.3-0.2,2.8-0.5,4.4-0.8l0.4-0.1l-0.2,0.4
							c-0.4,1-0.9,2.2-1.3,3.3l-0.3-0.4c0.1,0,0.1,0,0.2,0c1.7-0.2,3.3-0.4,4.7-0.6l0.3,0l0,0.3c-0.2,1.3-0.6,2.4-1,3.3l-0.2-0.3
							c1,0,1.8-0.2,2.4-0.4c0.5-0.2,0.8-0.4,0.8-0.4c0,0-0.2,0.3-0.7,0.6c-0.5,0.3-1.4,0.6-2.5,0.6l-0.3,0l0.1-0.3
							c0.3-0.9,0.7-2,0.8-3.2l0.3,0.3c-1.4,0.2-3,0.4-4.7,0.6c-0.1,0-0.1,0-0.2,0l-0.4,0.1l0.2-0.4c0.5-1.2,0.9-2.3,1.4-3.3l0.3,0.3
							c-1.6,0.2-3.1,0.5-4.4,0.6l-0.3,0l0.1-0.3C537,267.2,537.5,266,537.5,266.1z"/>
					</g>
				</g>
				<g>
					<g>
						<path class="st6" d="M510.1,266.5c0.1,0,0.6,1.1,1.3,3l-0.3-0.1c0.8-1,1.8-2.2,2.8-3.4l0.3-0.3l0.1,0.4
							c0.4,1.1,0.7,2.2,1.1,3.4l-0.4-0.1c0,0,0.1-0.1,0.1-0.1c1.1-1.2,2.2-2.4,3.2-3.5l0.2-0.2l0.2,0.3c0.7,1.1,1.1,2.2,1.4,3.1
							l-0.3-0.1c0.8-0.6,1.3-1.4,1.5-1.9c0.3-0.5,0.3-0.8,0.4-0.8c0,0,0,0.3-0.2,0.9c-0.2,0.6-0.6,1.4-1.5,2.1l-0.2,0.2l-0.1-0.3
							c-0.3-0.9-0.8-1.9-1.5-3l0.4,0c-1,1.1-2,2.3-3.2,3.5c0,0.1-0.1,0.1-0.1,0.1l-0.3,0.3l-0.1-0.4c-0.4-1.2-0.8-2.3-1.1-3.4
							l0.4,0.1c-1.1,1.2-2.1,2.4-2.9,3.4l-0.2,0.2l-0.1-0.3C510.4,267.8,510,266.6,510.1,266.5z"/>
					</g>
				</g>
				<g>
					<g>
						<path class="st6" d="M530.2,283.3c0-0.1,1,0.7,2.6,2l-0.3,0.1c0.2-1.3,0.5-2.8,0.8-4.4l0.1-0.4l0.3,0.3
							c0.8,0.8,1.7,1.6,2.6,2.4l-0.4,0.1c0-0.1,0-0.1,0-0.2c0.4-1.6,0.8-3.2,1.1-4.6l0.1-0.3l0.3,0.2c1.1,0.6,2,1.4,2.7,2.1
							l-0.3,0.1c0.4-0.9,0.4-1.8,0.4-2.4c0-0.6-0.1-0.9-0.1-0.9c0,0,0.2,0.3,0.3,0.9c0.1,0.6,0.1,1.5-0.3,2.5l-0.1,0.3l-0.2-0.2
							c-0.7-0.6-1.6-1.3-2.7-1.9l0.3-0.2c-0.3,1.4-0.7,3-1.1,4.6c0,0.1,0,0.1,0,0.2l-0.1,0.4l-0.3-0.3c-0.9-0.9-1.8-1.7-2.6-2.4
							l0.4-0.1c-0.4,1.6-0.7,3.1-0.9,4.3l-0.1,0.3l-0.2-0.2C531.1,284.2,530.2,283.3,530.2,283.3z"/>
					</g>
				</g>
				<g>
					<g>
						<path class="st6" d="M532.2,291.7c0,0.1-1.1,0.7-2.8,1.7l0-0.3c1.1,0.7,2.4,1.5,3.8,2.4l0.4,0.2l-0.4,0.2
							c-1,0.5-2.1,1-3.2,1.6l0-0.4c0.1,0,0.1,0.1,0.2,0.1c1.4,1,2.7,1.9,3.9,2.7l0.3,0.2l-0.2,0.2c-1,0.8-2,1.4-2.9,1.8l0-0.3
							c0.7,0.7,1.5,1.1,2.1,1.3c0.5,0.2,0.9,0.2,0.9,0.3c0,0-0.3,0.1-0.9-0.1c-0.6-0.1-1.4-0.5-2.2-1.2l-0.2-0.2l0.2-0.1
							c0.9-0.4,1.8-1,2.8-1.8l0,0.4c-1.2-0.8-2.5-1.7-3.9-2.7c-0.1,0-0.1-0.1-0.2-0.1l-0.4-0.3l0.4-0.2c1.1-0.5,2.2-1.1,3.2-1.5
							l0,0.4c-1.4-0.9-2.6-1.8-3.7-2.5l-0.3-0.2l0.3-0.1C531,292.2,532.1,291.6,532.2,291.7z"/>
					</g>
				</g>
				<g>
					<g>
						<path class="st6" d="M511.7,306.2c0-0.1,1.2,0.4,3.1,1.1l-0.3,0.2c-0.2-1.3-0.4-2.8-0.6-4.4l-0.1-0.4l0.4,0.2
							c1,0.5,2.1,1,3.2,1.5l-0.4,0.3c0-0.1,0-0.1,0-0.2c-0.1-1.7-0.3-3.3-0.4-4.7l0-0.3l0.3,0.1c1.3,0.3,2.4,0.7,3.2,1.1l-0.3,0.2
							c0.1-1-0.1-1.9-0.3-2.4c-0.2-0.5-0.4-0.8-0.3-0.8c0,0,0.3,0.2,0.5,0.8c0.3,0.5,0.6,1.4,0.5,2.5l0,0.3l-0.3-0.1
							c-0.9-0.4-1.9-0.8-3.2-1l0.3-0.3c0.1,1.5,0.3,3,0.4,4.7c0,0.1,0,0.1,0,0.2l0,0.4l-0.4-0.2c-1.1-0.5-2.2-1-3.2-1.5l0.3-0.3
							c0.2,1.6,0.3,3.1,0.5,4.4l0,0.3l-0.3-0.1C512.8,306.8,511.6,306.3,511.7,306.2z"/>
					</g>
				</g>
				<g>
					<g>
						<path class="st5" d="M510.5,265.2c0,0,0.4-0.1,1,0c0.7,0.1,1.7,0.3,2.7,1c1,0.6,2.1,1.7,2.8,3.2c0.7,1.5,1.1,3.2,1.1,5.1
							c0,3.8-1.8,6.9-3.4,8.6c-0.8,0.9-1.6,1.5-2.2,1.9c-0.6,0.4-0.9,0.5-0.9,0.5c-0.1-0.1,1.3-0.8,2.8-2.6c1.5-1.8,3.2-4.8,3.2-8.4
							c0-1.8-0.3-3.5-1-4.9c-0.7-1.4-1.6-2.4-2.6-3.1C512.1,265.1,510.5,265.3,510.5,265.2z"/>
					</g>
				</g>
			</g>
			<g>
				<g>
					<path class="st5" d="M508.4,311.6c-9.9,31.1,1.6,69.8-1.4,106.1c-0.3,3.3-1.6,7.3,1,9.4c1.5,1.2,3.6,1.4,5.5,0.9
						c1.9-0.5,3.6-1.4,5.4-2.1c4.5-1.8,9.6-2,14.3-0.6c3.1,1,6.3,2.7,9.5,2.2c4.3-0.7,7.1-4.9,11.1-6.7c3.7-1.7,8-1.1,12.1-1.2
						c4.1-0.1,8.8-1.5,10.3-5.3c0,0-28.3-105.6-38.2-111.9l-26.3,1.7L508.4,311.6z"/>
				</g>
				<g>
					<g>
						<path class="st3" d="M537.7,330.9c0,0.1-3.7,1.2-8.4,2.4c-4.7,1.2-8.5,2.1-8.5,2c0-0.1,3.7-1.2,8.4-2.4
							C533.9,331.7,537.7,330.8,537.7,330.9z"/>
					</g>
				</g>
			</g>
		</g>
	</g>
</g>
<g id="Device_2">
	<g>
		<g>
			<g>
				<g>
					<g>
						<g>
							<g>
								<g>
									<g>
										<path class="st3" d="M203.1,241.8l-52.8-0.2c-6.4,0-11.5-5.2-11.5-11.5L139.3,98c0-6.3,5.2-11.5,11.6-11.4l52.8,0.2
											c6.4,0,11.5,5.2,11.5,11.5l-0.6,132.1C214.6,236.8,209.4,241.9,203.1,241.8z"/>
									</g>
								</g>
							</g>
						</g>
						<g>
							<g>
								<g>
									<g>
										<path class="st4" d="M203.7,91.3l-10.2,0c-1.4,0-2.5,1.2-2.5,2.6l0,1.9c0,1.4-1.1,2.6-2.5,2.6l-20-0.1
											c-1.4,0-2.5-1.2-2.5-2.6l0-1.9c0-1.4-1.1-2.6-2.5-2.6l-3.6,0l-9,0c-4.5,0-8.1,3.6-8.1,8l-0.5,129c0,4.4,3.6,8.1,8,8.1
											l52.7,0.2c4.5,0,8.1-3.6,8.1-8l0.5-129C211.7,95,208.1,91.3,203.7,91.3z"/>
									</g>
								</g>
							</g>
						</g>
					</g>
				</g>
			</g>
		</g>
		<g>
			<g>
				<path class="st3" d="M203,144.1c0,0.1-11.5,0.3-25.6,0.3c-14.1,0-25.6-0.1-25.6-0.3c0-0.1,11.5-0.3,25.6-0.3
					C191.5,143.9,203,144,203,144.1z"/>
			</g>
		</g>
		<g>
			<g>
				<path class="st3" d="M203,147.3c0,0.1-11.5,0.3-25.6,0.3c-14.1,0-25.6-0.1-25.6-0.3c0-0.1,11.5-0.3,25.6-0.3
					C191.5,147,203,147.1,203,147.3z"/>
			</g>
		</g>
		<g>
			<g>
				<path class="st3" d="M185.7,150.1c0,0.1-4.6,0.3-10.3,0.3c-5.7,0-10.3-0.1-10.3-0.3s4.6-0.3,10.3-0.3
					C181.1,149.9,185.7,150,185.7,150.1z"/>
			</g>
		</g>
		<g>
			<g>
				<g>
					<rect x="148.8" y="157.1" class="st7" width="54.2" height="34.7"/>
				</g>
				<g>
					<ellipse class="st6" cx="154.5" cy="163.9" rx="2.2" ry="2.1"/>
				</g>
				<g>
					<g>
						<path class="st6" d="M200,165.7l-1.8-1.7l-1.7,1.7l-0.1-5l3.4,0L200,165.7z M198.3,163.8L198.3,163.8l1.6,1.6l0-4.5l-3.1,0
							l0,4.4L198.3,163.8z"/>
					</g>
				</g>
				<g>
					<g>
						<path class="st6" d="M186.4,162.8c0,0.1-6,0.3-13.3,0.3c-7.3,0-13.3-0.1-13.3-0.3c0-0.1,6-0.3,13.3-0.3
							C180.4,162.6,186.4,162.7,186.4,162.8z"/>
					</g>
				</g>
				<g>
					<g>
						<path class="st6" d="M170.1,165.7c0,0.1-2.3,0.3-5.1,0.3c-2.8,0-5.1-0.1-5.1-0.3c0-0.1,2.3-0.3,5.1-0.3
							C167.8,165.5,170.1,165.6,170.1,165.7z"/>
					</g>
				</g>
			</g>
		</g>
		<g>
			<g>
				<path class="st7" d="M163.5,91.1l-3.6,0l-9,0c-4.5,0-8.1,3.6-8.1,8l-0.1,24.5c2.7,0.5,5.4,1.1,8.1,1.5c14,2.4,28.9,3.3,41.7-2.8
					c7.1-3.4,13-8.6,19.1-13.6l0-9.3c0-4.4-3.6-8.1-8-8.1l-10.2,0c-1.4,0-2.5,1.2-2.5,2.6l0,1.9c0,1.4-1.1,2.6-2.5,2.6l-20-0.1
					c-1.4,0-2.5-1.2-2.5-2.6l0-1.9C166,92.3,164.9,91.1,163.5,91.1z M167.7,106.9c0,4-3.2,7.2-7.2,7.2c-4,0-7.2-3.2-7.2-7.2
					c0-4,3.2-7.2,7.2-7.2C164.5,99.6,167.7,102.9,167.7,106.9z"/>
			</g>
			<g>
				<g>
					<path class="st7" d="M150.8,125.1c-2.7-0.5-5.4-1-8.1-1.5l-0.1,12.4h68.9l0.1-27.3c-6.1,5-12,10.3-19.1,13.6
						C179.8,128.4,164.8,127.5,150.8,125.1z M171.8,131.6c-0.3,0-0.6-0.3-0.6-0.6c0-0.3,0.3-0.6,0.6-0.6c0.3,0,0.6,0.3,0.6,0.6
						C172.4,131.3,172.1,131.6,171.8,131.6z M175.7,131.6c-0.3,0-0.6-0.3-0.6-0.6c0-0.3,0.3-0.6,0.6-0.6c0.3,0,0.6,0.3,0.6,0.6
						C176.4,131.3,176.1,131.6,175.7,131.6z M179.7,131.6c-0.3,0-0.6-0.3-0.6-0.6c0-0.3,0.3-0.6,0.6-0.6s0.6,0.3,0.6,0.6
						C180.3,131.3,180,131.6,179.7,131.6z"/>
				</g>
			</g>
			<g>
				<path class="st3" d="M171.8,130.4c-0.3,0-0.6,0.3-0.6,0.6c0,0.3,0.3,0.6,0.6,0.6c0.3,0,0.6-0.3,0.6-0.6
					C172.4,130.6,172.1,130.4,171.8,130.4z"/>
			</g>
			<g>
				<path class="st3" d="M175.7,130.4c-0.3,0-0.6,0.3-0.6,0.6c0,0.3,0.3,0.6,0.6,0.6c0.3,0,0.6-0.3,0.6-0.6
					C176.4,130.6,176.1,130.4,175.7,130.4z"/>
			</g>
			<g>
				<path class="st3" d="M179.7,130.4c-0.3,0-0.6,0.3-0.6,0.6c0,0.3,0.3,0.6,0.6,0.6s0.6-0.3,0.6-0.6
					C180.3,130.6,180,130.4,179.7,130.4z"/>
			</g>
			<g>
				<path class="st7" d="M160.5,99.6c-4,0-7.2,3.2-7.2,7.2c0,4,3.2,7.2,7.2,7.2c4,0,7.2-3.2,7.2-7.2
					C167.7,102.9,164.5,99.6,160.5,99.6z"/>
			</g>
			<g class="st8">
				<path d="M160.5,99.6c-4,0-7.2,3.2-7.2,7.2c0,4,3.2,7.2,7.2,7.2c4,0,7.2-3.2,7.2-7.2C167.7,102.9,164.5,99.6,160.5,99.6z"/>
			</g>
			<g>
				<path class="st5" d="M148.8,236c0.5,0.1,1,0.2,1.5,0.2l51.7,0.2v-27.2h-53.2V236z M199,212.8l0.1,5.1l-1.8-1.7l-1.6,1.7l-0.1-5
					L199,212.8z M154.4,213.9c1.2,0,2.1,1,2.1,2.1s-1,2.1-2.1,2.1s-2.1-1-2.1-2.1S153.2,213.9,154.4,213.9z"/>
			</g>
			<g>
				<polygon class="st5" points="197.3,215.9 197.4,216 198.9,217.5 198.9,213 195.8,213 195.9,217.5 				"/>
			</g>
			<g>
				<circle class="st6" cx="154.4" cy="216.1" r="2.1"/>
			</g>
			<g>
				<path class="st6" d="M197.3,216.2l1.8,1.7l-0.1-5.1l-3.4,0l0.1,5L197.3,216.2z M198.9,213l0,4.5l-1.5-1.5l-0.1-0.1l-1.5,1.5
					l0-4.4L198.9,213z"/>
			</g>
			<g class="st8">
				<g>
					<path d="M150.8,125.1c-2.7-0.5-5.4-1-8.1-1.5l-0.1,12.4h68.9l0.1-27.3c-6.1,5-12,10.3-19.1,13.6
						C179.8,128.4,164.8,127.5,150.8,125.1z M171.8,131.6c-0.3,0-0.6-0.3-0.6-0.6c0-0.3,0.3-0.6,0.6-0.6c0.3,0,0.6,0.3,0.6,0.6
						C172.4,131.3,172.1,131.6,171.8,131.6z M175.7,131.6c-0.3,0-0.6-0.3-0.6-0.6c0-0.3,0.3-0.6,0.6-0.6c0.3,0,0.6,0.3,0.6,0.6
						C176.4,131.3,176.1,131.6,175.7,131.6z M179.7,131.6c-0.3,0-0.6-0.3-0.6-0.6c0-0.3,0.3-0.6,0.6-0.6s0.6,0.3,0.6,0.6
						C180.3,131.3,180,131.6,179.7,131.6z"/>
				</g>
			</g>
		</g>
		<g>
			<g>
				<g>
					<path class="st3" d="M201.5,195.2c0,0.1-11.8,0.3-26.4,0.3c-14.6,0-26.4-0.1-26.4-0.3s11.8-0.3,26.4-0.3
						C189.7,195,201.5,195.1,201.5,195.2z"/>
				</g>
			</g>
			<g>
				<g>
					<path class="st3" d="M201.5,197.9c0,0.1-11.8,0.3-26.4,0.3c-14.6,0-26.4-0.1-26.4-0.3c0-0.1,11.8-0.3,26.4-0.3
						C189.7,197.6,201.5,197.8,201.5,197.9z"/>
				</g>
			</g>
			<g>
				<g>
					<path class="st3" d="M201.5,200.9c0,0.1-11.8,0.3-26.4,0.3c-14.6,0-26.4-0.1-26.4-0.3s11.8-0.3,26.4-0.3
						C189.7,200.7,201.5,200.8,201.5,200.9z"/>
				</g>
			</g>
			<g>
				<g>
					<path class="st3" d="M176.3,203.6c0,0.1-6.2,0.3-13.7,0.3c-7.6,0-13.7-0.1-13.7-0.3c0-0.1,6.2-0.3,13.7-0.3
						C170.1,203.3,176.3,203.4,176.3,203.6z"/>
				</g>
			</g>
		</g>
	</g>
</g>
<g id="Device_1">
	<g>
		<g>
			<g>
				<g>
					<g>
						<path class="st3" d="M300.7,422.7h-228c-8,0-14.6-6.5-14.6-14.6V260.4c0-4.3,3.5-7.8,7.8-7.8h242.7c3.7,0,6.7,3,6.7,6.7v148.8
							C315.2,416.2,308.7,422.7,300.7,422.7z"/>
					</g>
				</g>
			</g>
			<g>
				<g>
					<g>
						<path class="st3" d="M312.2,425.1H61c-7.6,0-13.7-6.1-13.7-13.7v-1.2h278.6v1.2C325.9,418.9,319.8,425.1,312.2,425.1z"/>
					</g>
				</g>
			</g>
			<g>
				<g>
					<g>
						<rect x="65" y="259.4" class="st5" width="242.6" height="143.6"/>
					</g>
				</g>
			</g>
			<g>
				<g>
					<g>
						<polygon class="st5" points="161.3,410.2 164.8,415.7 213.4,415.7 216.6,410.2 						"/>
					</g>
				</g>
			</g>
		</g>
		<g>
			<g>
				<g>
					<rect x="73.1" y="269" class="st4" width="223.4" height="134"/>
				</g>
			</g>
		</g>
		<g>
			<g>
				<g>
					<path class="st3" d="M82.6,275.6c0,1-0.8,1.9-1.9,1.9c-1,0-1.9-0.8-1.9-1.9c0-1,0.8-1.9,1.9-1.9
						C81.8,273.7,82.6,274.6,82.6,275.6z"/>
				</g>
			</g>
		</g>
		<g>
			<g>
				<g>
					<path class="st3" d="M90.3,275.6c0,1-0.8,1.9-1.9,1.9c-1,0-1.9-0.8-1.9-1.9c0-1,0.8-1.9,1.9-1.9
						C89.4,273.7,90.3,274.6,90.3,275.6z"/>
				</g>
			</g>
		</g>
		<g>
			<g>
				<g>
					<path class="st3" d="M97.9,275.6c0,1-0.8,1.9-1.9,1.9c-1,0-1.9-0.8-1.9-1.9c0-1,0.8-1.9,1.9-1.9
						C97.1,273.7,97.9,274.6,97.9,275.6z"/>
				</g>
			</g>
		</g>
		<g>
			<g>
				<g>
					<rect x="58.1" y="410.3" class="st5" width="257.2" height="0.8"/>
				</g>
			</g>
		</g>
		<g>
			<g>
				<path class="st3" d="M238.4,345.6c0,0.1-23.8,0.3-53.2,0.3c-29.4,0-53.2-0.1-53.2-0.3c0-0.1,23.8-0.3,53.2-0.3
					C214.6,345.3,238.4,345.5,238.4,345.6z"/>
			</g>
		</g>
		<g>
			<g>
				<path class="st3" d="M212.5,349.3c0,0.1-12.8,0.3-28.5,0.3c-15.7,0-28.5-0.1-28.5-0.3s12.8-0.3,28.5-0.3
					C199.8,349,212.5,349.1,212.5,349.3z"/>
			</g>
		</g>
		<g>
			<g>
				<rect x="89.3" y="361.7" class="st7" width="59.6" height="38.9"/>
			</g>
			<g>
				<path class="st6" d="M98,369.4c0,1.3-1.1,2.4-2.4,2.4c-1.3,0-2.4-1.1-2.4-2.4s1.1-2.4,2.4-2.4C96.9,367,98,368.1,98,369.4z"/>
			</g>
			<g>
				<g>
					<path class="st6" d="M145.7,371.4l-2-1.9l-1.8,1.9l-0.1-5.6l3.8,0L145.7,371.4z M143.8,369.2L143.8,369.2l1.8,1.8l-0.1-5.1
						l-3.4,0l0.1,5L143.8,369.2z"/>
				</g>
			</g>
			<g>
				<g>
					<path class="st6" d="M130.7,368.1c0,0.1-6.5,0.3-14.6,0.3c-8.1,0-14.6-0.1-14.6-0.3s6.5-0.3,14.6-0.3
						C124.2,367.8,130.7,368,130.7,368.1z"/>
				</g>
			</g>
			<g>
				<g>
					<path class="st6" d="M112.7,371.4c0,0.1-2.5,0.3-5.6,0.3c-3.1,0-5.6-0.1-5.6-0.3c0-0.1,2.5-0.3,5.6-0.3
						C110.2,371.1,112.7,371.2,112.7,371.4z"/>
				</g>
			</g>
		</g>
		<g>
			<g>
				<rect x="155.4" y="361.7" class="st5" width="59.6" height="38.9"/>
			</g>
			<g>
				<path class="st6" d="M164,369.4c0,1.3-1.1,2.4-2.4,2.4s-2.4-1.1-2.4-2.4s1.1-2.4,2.4-2.4S164,368.1,164,369.4z"/>
			</g>
			<g>
				<g>
					<path class="st6" d="M211.8,371.4l-2-1.9l-1.8,1.9l-0.1-5.6l3.8,0L211.8,371.4z M209.8,369.2L209.8,369.2l1.8,1.8l-0.1-5.1
						l-3.4,0l0.1,5L209.8,369.2z"/>
				</g>
			</g>
			<g>
				<g>
					<path class="st6" d="M196.8,368.1c0,0.1-6.5,0.3-14.6,0.3c-8.1,0-14.6-0.1-14.6-0.3s6.5-0.3,14.6-0.3
						C190.2,367.8,196.8,368,196.8,368.1z"/>
				</g>
			</g>
			<g>
				<g>
					<path class="st6" d="M178.8,371.4c0,0.1-2.5,0.3-5.6,0.3c-3.1,0-5.6-0.1-5.6-0.3c0-0.1,2.5-0.3,5.6-0.3
						C176.3,371.1,178.8,371.2,178.8,371.4z"/>
				</g>
			</g>
		</g>
		<g>
			<g>
				<rect x="221.3" y="361.7" class="st7" width="59.6" height="38.9"/>
			</g>
			<g>
				<path class="st6" d="M230,369.4c0,1.3-1.1,2.4-2.4,2.4s-2.4-1.1-2.4-2.4s1.1-2.4,2.4-2.4S230,368.1,230,369.4z"/>
			</g>
			<g>
				<g>
					<path class="st6" d="M277.7,371.4l-2-1.9l-1.8,1.9l-0.1-5.6l3.8,0L277.7,371.4z M275.8,369.2L275.8,369.2l1.8,1.8l-0.1-5.1
						l-3.4,0l0.1,5L275.8,369.2z"/>
				</g>
			</g>
			<g>
				<g>
					<path class="st6" d="M262.7,368.1c0,0.1-6.5,0.3-14.6,0.3c-8.1,0-14.6-0.1-14.6-0.3s6.5-0.3,14.6-0.3
						C256.2,367.8,262.7,368,262.7,368.1z"/>
				</g>
			</g>
			<g>
				<g>
					<path class="st6" d="M244.7,371.4c0,0.1-2.5,0.3-5.6,0.3c-3.1,0-5.6-0.1-5.6-0.3c0-0.1,2.5-0.3,5.6-0.3
						C242.2,371.1,244.7,371.2,244.7,371.4z"/>
				</g>
			</g>
		</g>
		<g>
			<g>
				<path class="st7" d="M125.9,287.4c-4.1,0.8-8.4-0.1-12.5,0.6c-8.2,1.3-14.4,8.1-22,11.5c-5.7,2.6-12.2,3.1-18.3,1.7v21.7
					c8.3-4.3,18-6.4,27.2-6.7c17.3-0.5,34.3,4.2,51.3,7.2c17.1,3,35.4,4,51-3.4c12.6-6,22.1-16.9,33.8-24.5
					c17.5-11.5,39.9-14.9,60.2-9.9v-3.7H133.2C132.2,284.6,129,286.8,125.9,287.4z M163.3,292.3c4.9,0,8.8,4,8.8,8.8
					c0,4.9-4,8.8-8.8,8.8c-4.9,0-8.8-4-8.8-8.8C154.5,296.2,158.5,292.3,163.3,292.3z"/>
			</g>
			<g>
				<g>
					<path class="st7" d="M236.3,295.4c-11.6,7.7-21.2,18.5-33.8,24.5c-15.6,7.4-33.9,6.4-51,3.4c-17.1-3-34-7.8-51.3-7.2
						c-9.2,0.3-18.8,2.5-27.2,6.7v13.8h223.4v-51.2C276.2,280.6,253.8,283.9,236.3,295.4z M178.4,330.2c-0.5,0-0.9-0.4-0.9-0.9
						c0-0.5,0.4-0.9,0.9-0.9c0.5,0,0.9,0.4,0.9,0.9C179.3,329.8,178.9,330.2,178.4,330.2z M184,330.2c-0.5,0-0.9-0.4-0.9-0.9
						c0-0.5,0.4-0.9,0.9-0.9s0.9,0.4,0.9,0.9C184.9,329.8,184.5,330.2,184,330.2z M189.6,330.2c-0.5,0-0.9-0.4-0.9-0.9
						c0-0.5,0.4-0.9,0.9-0.9c0.5,0,0.9,0.4,0.9,0.9C190.5,329.8,190.1,330.2,189.6,330.2z M287.6,310.4c1.1-1.1,2.9-1.1,4.1,0
						c1.1,1.1,1.1,2.9,0,4.1c-1.1,1.1-2.9,1.1-4.1,0C286.5,313.4,286.5,311.6,287.6,310.4z"/>
				</g>
			</g>
			<g>
				<path class="st3" d="M178.4,328.5c-0.5,0-0.9,0.4-0.9,0.9c0,0.5,0.4,0.9,0.9,0.9c0.5,0,0.9-0.4,0.9-0.9
					C179.3,328.9,178.9,328.5,178.4,328.5z"/>
			</g>
			<g>
				<circle class="st3" cx="184" cy="329.4" r="0.9"/>
			</g>
			<g>
				<circle class="st3" cx="189.6" cy="329.4" r="0.9"/>
			</g>
			<g>
				<path class="st7" d="M91.3,299.5c7.6-3.5,13.8-10.3,22-11.5c4.1-0.6,8.4,0.2,12.5-0.6c3.1-0.6,6.3-2.8,7.3-5.6H73.1v19.4
					C79.1,302.6,85.6,302.1,91.3,299.5z"/>
			</g>
			<g class="st8">
				<g>
					<path class="st4" d="M91.3,299.5c7.6-3.5,13.8-10.3,22-11.5c4.1-0.6,8.4,0.2,12.5-0.6c3.1-0.6,6.3-2.8,7.3-5.6H73.1v19.4
						C79.1,302.6,85.6,302.1,91.3,299.5z"/>
				</g>
			</g>
			<g>
				
					<ellipse transform="matrix(0.7071 -0.7071 0.7071 0.7071 -165.0758 203.6841)" class="st7" cx="163.3" cy="301.1" rx="8.8" ry="8.8"/>
			</g>
			<g class="st8">
				<ellipse transform="matrix(0.7071 -0.7071 0.7071 0.7071 -165.0758 203.6841)" cx="163.3" cy="301.1" rx="8.8" ry="8.8"/>
			</g>
			<g>
				<circle class="st7" cx="289.7" cy="312.5" r="2.9"/>
			</g>
			<g class="st8">
				<g>
					<path d="M236.3,295.4c-11.6,7.7-21.2,18.5-33.8,24.5c-15.6,7.4-33.9,6.4-51,3.4c-17.1-3-34-7.8-51.3-7.2
						c-9.2,0.3-18.8,2.5-27.2,6.7v13.8h223.4v-51.2C276.2,280.6,253.8,283.9,236.3,295.4z M178.4,330.2c-0.5,0-0.9-0.4-0.9-0.9
						c0-0.5,0.4-0.9,0.9-0.9c0.5,0,0.9,0.4,0.9,0.9C179.3,329.8,178.9,330.2,178.4,330.2z M184,330.2c-0.5,0-0.9-0.4-0.9-0.9
						c0-0.5,0.4-0.9,0.9-0.9s0.9,0.4,0.9,0.9C184.9,329.8,184.5,330.2,184,330.2z M189.6,330.2c-0.5,0-0.9-0.4-0.9-0.9
						c0-0.5,0.4-0.9,0.9-0.9c0.5,0,0.9,0.4,0.9,0.9C190.5,329.8,190.1,330.2,189.6,330.2z M287.6,310.4c1.1-1.1,2.9-1.1,4.1,0
						c1.1,1.1,1.1,2.9,0,4.1c-1.1,1.1-2.9,1.1-4.1,0C286.5,313.4,286.5,311.6,287.6,310.4z"/>
				</g>
			</g>
		</g>
		<g>
			<g>
				<g>
					<path class="st3" d="M287.8,384.8c0,0,0.3-0.3,0.8-0.8c0.5-0.4,1.3-1.1,2.1-1.7l0,0.2c0,0,0,0,0,0c-0.8-0.7-1.5-1.3-2-1.8
						c-0.5-0.5-0.8-0.8-0.8-0.8c0,0,0.4,0.2,0.9,0.7c0.5,0.4,1.3,1.1,2.1,1.8c0,0,0,0,0,0l0.1,0.1l-0.1,0.1
						c-0.8,0.7-1.6,1.3-2.1,1.7C288.1,384.6,287.8,384.9,287.8,384.8z"/>
				</g>
			</g>
		</g>
		<g>
			<g>
				<g>
					<path class="st3" d="M82.8,379.8c0,0-0.3,0.3-0.8,0.8c-0.5,0.4-1.3,1.1-2.1,1.7l0-0.2c0,0,0,0,0,0c0.8,0.7,1.5,1.3,2,1.8
						c0.5,0.5,0.8,0.8,0.8,0.8c0,0-0.4-0.2-0.9-0.7c-0.5-0.4-1.3-1.1-2.1-1.8c0,0,0,0,0,0l-0.1-0.1l0.1-0.1c0.8-0.7,1.6-1.3,2.1-1.7
						C82.4,380.1,82.8,379.8,82.8,379.8z"/>
				</g>
			</g>
		</g>
	</g>
</g>
</svg>
