<?xml version="1.0" encoding="utf-8"?>
<!-- Generator: Adobe Illustrator 23.1.0, SVG Export Plug-In . SVG Version: 6.00 Build 0)  -->
<svg version="1.1" id="Layer_1" xmlns="http://www.w3.org/2000/svg" xmlns:xlink="http://www.w3.org/1999/xlink" x="0px" y="0px"
	 viewBox="0 0 31.1 31" style="enable-background:new 0 0 31.1 31;" xml:space="preserve">
<style type="text/css">
	.st0{fill:#E81F64;stroke:#FFFFFF;stroke-miterlimit:10;}
	.st1{fill:#434141;}
	.st2{fill:#FFFFFF;}
</style>
<circle class="st0" cx="15.6" cy="15.5" r="15"/>
<circle class="st1" cx="21.8" cy="23" r="3.3"/>
<polygon class="st2" points="20.4,21.5 21.2,20.6 23.7,22.8 21.3,25.3 20.4,24.4 21.7,23 "/>
<path class="st2" d="M18.4,26.3c0,0-1.7-1.5-1.4-3.7c0,0,0.1-1.8,1.8-3.3c0,0,0.2-0.8,2.4-0.9c0,0-0.5-2.3-4.3-3.3c0,0-2,1.5-4.8,0
	c0,0-2.6,0.4-3.9,2.3c0,0-1.1,1.2-1.4,3.1v4.9c0,0-0.3,0.5,0.5,0.8H18.4z"/>
<path class="st2" d="M10.6,11.7c0,0,1,2.7,3.9,2.9c0,0,1.9,0.4,3.3-1.8c0,0,0.5-0.6,0.7-1.4V8.2c0,0-0.1-1.8-2.5-2.8
	c0,0-2.2-0.9-4,0.6c0,0-1.1,0.8-1.4,2.6V11.7z"/>
</svg>
