<?xml version="1.0" encoding="utf-8"?>
<!-- Generator: Adobe Illustrator 23.1.0, SVG Export Plug-In . SVG Version: 6.00 Build 0)  -->
<svg version="1.1" id="Layer_1" xmlns="http://www.w3.org/2000/svg" xmlns:xlink="http://www.w3.org/1999/xlink" x="0px" y="0px"
	 viewBox="0 0 872 183" style="enable-background:new 0 0 872 183;" xml:space="preserve">
<style type="text/css">
	.st0{fill:#FFFFFF;}
	.st1{opacity:0.5;fill:#FCFCFC;enable-background:new    ;}
</style>
<g>
	<path class="st0" d="M62.9,89.6l-0.7-0.4L61.5,70H20.1v23.3l-8.2,22.8v56.8c0,2.9,2.2,5.4,5.1,5.5h0.1c2.6,0,4.7-2.2,4.7-4.9v-20
		h4.3v20.1c0,2.5,2,4.7,4.5,4.8h0.1c0.2,0,0.4,0,0.6,0c2.3-0.3,4-2.4,4-4.7v-20.1h4.3v20.1c0,2.5,2,4.7,4.5,4.8h0.1
		c0.2,0,0.4,0,0.6,0c2.3-0.2,4-2.4,4-4.7v-20.1h4.3v20.1c0,2.5,2,4.7,4.5,4.8h0.1H58c2.9,0,5.3-2.4,5.3-5.3v-54.8l14.8-0.1
		C77,112.7,72.9,95.5,62.9,89.6z"/>
	<path class="st0" d="M174.9,165.5L174.9,165.5c0-2.6-2.3-4.7-4.9-4.7h-20.1v-4.4h20.2c2.5,0,4.7-2,4.8-4.5v-0.1c0-0.2,0-0.4,0-0.6
		c-0.3-2.3-2.4-4-4.7-4H150v-4.4h20.2c2.5,0,4.7-2,4.8-4.5v-0.1c0-0.2,0-0.4,0-0.6c-0.3-2.3-2.4-4-4.7-4H150v-4.4h20.2
		c2.5,0,4.7-2,4.8-4.5v-0.1c0-3-2.4-5.4-5.3-5.4h-55l-0.1-14.8c-5.4,1-22.8,5.1-28.6,15.1l-0.4,0.7l-19.3,0.7v41.4h23.4l22.9,8.3
		h57.1C172.5,170.8,174.9,168.4,174.9,165.5z"/>
	<path class="st0" d="M167.1,13.5c0-2.7-1.9-5.1-4.6-5.4c-0.2,0-0.4,0-0.6,0c-2.6,0-4.7,2.2-4.7,4.9v20h-4.4V12.9
		c0-2.5-2-4.7-4.5-4.8h-0.1c-0.2,0-0.4,0-0.6,0c-2.3,0.3-4,2.4-4,4.7v20.1h-4.4V12.8c0-2.5-2-4.7-4.5-4.8h-0.1c-0.2,0-0.4,0-0.6,0
		c-2.3,0.2-4,2.4-4,4.7v20.1h-4.4V12.7c0-2.5-2-4.7-4.5-4.8H121c-3,0-5.4,2.4-5.4,5.3v54.9l-14.8,0.1c1,5.4,5.1,22.7,15.1,28.6
		l0.7,0.4l0.7,19.2h41.4V93.1l8.3-22.8V13.5H167.1z"/>
	<path class="st0" d="M64.9,82c5.3-1,22.5-5,28.3-15.1l0.4-0.7l19.2-0.7V24.1H89.5l-22.8-8.3H9.8c-2.9,0-5.4,2.2-5.5,5.1V21
		c0,2.6,2.2,4.7,4.9,4.7h20v4.4H9.1c-2.5,0-4.7,2-4.8,4.5v0.1c0,0.2,0,0.4,0,0.6c0.3,2.3,2.3,4,4.7,4h20.1v4.4h-20
		c-2.5,0-4.7,2-4.8,4.5v0.1c0,0.2,0,0.4,0,0.6c0.2,2.3,2.3,4,4.7,4h20.1v4.4H9.2c-2.5,0-4.7,2-4.8,4.5v0.1c0,3,2.4,5.4,5.3,5.4h54.7
		L64.9,82z"/>
</g>
<g>
	<path class="st1" d="M299,114.7h17.9v6.1c0,21.8-3.7,35.4-11.1,40.8s-26.1,8.1-56,8.1c-26.8,0-43.8-4.8-51.1-14.4
		s-10.9-32.1-10.9-67.6c0-27.7,0.8-45.2,2.5-52.3s6.3-13.5,14.1-19.2c9.1-6.6,28.6-9.8,58.7-9.8c20.4,0,34.1,3.2,41.2,9.5
		s10.6,18.6,10.6,36.7l0.1,4.3h-18l-0.1-4.9c0-12.9-2.1-21.2-6.3-24.8s-13.6-5.5-28.3-5.5c-25.8,0-41.5,2.1-47.2,6.4
		s-8.6,16.2-8.6,35.7c0,44.9,1.9,71.2,5.7,79s16.9,11.6,39.3,11.6c21.2,0,34.5-1.7,39.8-5c5.3-3.4,7.9-11.8,7.9-25.3L299,114.7z"/>
	<path class="st1" d="M391,6.5c30.2,0,49.1,4.4,56.7,13.2s11.4,30.9,11.4,66.2c0,38-3.6,61.5-10.9,70.4s-26.3,13.4-57.2,13.4
		c-30.7,0-49.8-4.4-57.1-13.2s-11.1-31.6-11.1-68.4V76.9l0.2-15.1c0-21.2,4.8-35.8,14.4-43.5C346.9,10.4,364.8,6.5,391,6.5z
		 M390.9,21.8c-25.3,0-40.1,2.8-44.4,8.4c-4.3,5.6-6.5,24.9-6.5,57.9s2.1,52.4,6.5,58c4.3,5.6,19.1,8.4,44.4,8.4
		c25.4,0,40.2-2.8,44.5-8.4s6.5-25,6.5-58V77.7l-0.1-15.1c0-17.6-3-28.9-8.9-33.6C426.9,24.2,412.9,21.8,390.9,21.8z"/>
	<path class="st1" d="M533.4,6.5c30.2,0,49.1,4.4,56.7,13.2c7.6,8.8,11.4,30.9,11.4,66.2c0,38-3.6,61.5-10.9,70.4
		s-26.3,13.4-57.2,13.4c-30.7,0-49.8-4.4-57.1-13.2s-11.1-31.6-11.1-68.4V76.9l0.2-15.1c0-21.2,4.8-35.8,14.4-43.5
		C489.3,10.4,507.2,6.5,533.4,6.5z M533.2,21.8c-25.3,0-40.1,2.8-44.4,8.4c-4.3,5.6-6.5,24.9-6.5,57.9s2.2,52.4,6.5,58
		s19.1,8.4,44.4,8.4c25.4,0,40.2-2.8,44.5-8.4s6.5-25,6.5-58V77.7l-0.1-15.1c0-17.6-3-28.9-8.9-33.6
		C569.3,24.2,555.3,21.8,533.2,21.8z"/>
	<path class="st1" d="M617.3,168.1V8.1h67.2h6.1c18,0,30.3,3.5,36.9,10.4c6.6,7,9.8,20,9.8,39c0,18.3-3.4,30.7-10.2,37.4
		c-6.8,6.6-19.7,10-38.5,10l-7,0.1h-46.2v63h-18.1V168.1z M635.3,89.9h42.8c17.9,0,29.4-1.8,34.4-5.5s7.6-12.1,7.6-25.3
		c0-15.5-1.7-25.2-5.1-29.4s-11.5-6.1-24.2-6.1l-6.9-0.1h-48.5L635.3,89.9L635.3,89.9z"/>
	<path class="st1" d="M863.7,51.5h-17.9c0-12.9-2.2-21.1-6.5-24.6s-14.4-5.2-30.3-5.2c-18.9,0-31.1,1.7-36.6,5s-8.2,10.7-8.2,22.2
		c0,12.9,2.2,20.7,6.5,23.6c4.3,2.8,17.1,4.7,38.3,5.7c24.9,1.1,40.8,4.3,47.5,9.5c6.8,5.2,10.1,16.9,10.1,35.2
		c0,19.7-3.9,32.4-11.7,38.2c-7.8,5.8-24.9,8.7-51.5,8.7c-23,0-38.4-2.9-46-8.7S746,143.5,746,125.9l-0.1-7.1h17.9v4
		c0,14.3,2.2,23.2,6.6,26.7c4.4,3.5,15.6,5.2,33.6,5.2c20.7,0,33.4-1.7,38.2-5.2s7.2-12.8,7.2-27.8c0-9.8-1.6-16.3-4.9-19.5
		c-3.2-3.2-10-5.2-20.3-5.8l-18.8-0.9l-17.8-0.9c-27.1-1.9-40.7-15.9-40.7-42.2c0-18.2,3.9-30.4,11.8-36.4
		c7.9-6.1,23.6-9.1,47.2-9.1c23.9,0,39.5,2.8,46.8,8.5C860.1,20.7,863.7,32.9,863.7,51.5z"/>
</g>
</svg>
