<?xml version="1.0" encoding="utf-8"?>
<!-- Generator: Adobe Illustrator 23.1.0, SVG Export Plug-In . SVG Version: 6.00 Build 0)  -->
<svg version="1.1" id="Layer_1" xmlns="http://www.w3.org/2000/svg" xmlns:xlink="http://www.w3.org/1999/xlink" x="0px" y="0px"
	 viewBox="0 0 100.5 21" style="enable-background:new 0 0 100.5 21;" xml:space="preserve">
<style type="text/css">
	.st0{fill:#FFFFFF;}
	.st1{opacity:0.5;fill:#FDFEFF;}
</style>
<g>
	<g>
		<path class="st0" d="M7,10.2L7,10.2L6.9,7.9H2.1v2.7l-1,2.6v6.6c0,0.3,0.3,0.6,0.6,0.6h0c0.3,0,0.5-0.3,0.5-0.6v-2.3h0.5v2.3
			c0,0.3,0.2,0.5,0.5,0.6h0c0,0,0,0,0.1,0c0.3,0,0.5-0.3,0.5-0.5v-2.3h0.5V20c0,0.3,0.2,0.5,0.5,0.6h0c0,0,0,0,0.1,0
			c0.3,0,0.5-0.3,0.5-0.5v-2.3h0.5V20c0,0.3,0.2,0.5,0.5,0.6h0h0c0.3,0,0.6-0.3,0.6-0.6v-6.4l1.7,0C8.7,12.9,8.2,10.9,7,10.2z"/>
		<path class="st0" d="M20,19L20,19c0-0.3-0.3-0.5-0.6-0.5h-2.3V18h2.3c0.3,0,0.5-0.2,0.6-0.5v0c0,0,0,0,0-0.1
			c0-0.3-0.3-0.5-0.5-0.5h-2.3v-0.5h2.3c0.3,0,0.5-0.2,0.6-0.5v0c0,0,0,0,0-0.1c0-0.3-0.3-0.5-0.5-0.5h-2.3v-0.5h2.3
			c0.3,0,0.5-0.2,0.6-0.5v0c0-0.3-0.3-0.6-0.6-0.6H13l0-1.7c-0.6,0.1-2.6,0.6-3.3,1.8l0,0.1l-2.2,0.1v4.8h2.7l2.7,1h6.6
			C19.7,19.6,20,19.4,20,19z"/>
		<path class="st0" d="M19.1,1.4c0-0.3-0.2-0.6-0.5-0.6c0,0,0,0-0.1,0C18.2,0.7,18,1,18,1.3v2.3h-0.5V1.3c0-0.3-0.2-0.5-0.5-0.6h0
			c0,0,0,0-0.1,0c-0.3,0-0.5,0.3-0.5,0.5v2.3h-0.5V1.3c0-0.3-0.2-0.5-0.5-0.6h0c0,0,0,0-0.1,0c-0.3,0-0.5,0.3-0.5,0.5v2.3h-0.5V1.3
			c0-0.3-0.2-0.5-0.5-0.6h0c-0.3,0-0.6,0.3-0.6,0.6v6.4l-1.7,0c0.1,0.6,0.6,2.6,1.8,3.3l0.1,0l0.1,2.2h4.8v-2.7l1-2.6V1.4z"/>
		<path class="st0" d="M7.3,9.3c0.6-0.1,2.6-0.6,3.3-1.7l0-0.1l2.2-0.1V2.6h-2.7l-2.6-1H0.9c-0.3,0-0.6,0.3-0.6,0.6v0
			c0,0.3,0.3,0.5,0.6,0.5h2.3v0.5H0.8c-0.3,0-0.5,0.2-0.6,0.5v0c0,0,0,0,0,0.1c0,0.3,0.3,0.5,0.5,0.5h2.3v0.5H0.8
			c-0.3,0-0.5,0.2-0.6,0.5v0c0,0,0,0,0,0.1C0.3,5.8,0.5,6,0.8,6h2.3v0.5H0.8C0.5,6.5,0.3,6.7,0.3,7v0c0,0.3,0.3,0.6,0.6,0.6h6.3
			L7.3,9.3z"/>
	</g>
	<g>
		<path class="st1" d="M34.4,13.1h2.1v0.7c0,2.5-0.4,4.1-1.3,4.7c-0.9,0.6-3,0.9-6.5,0.9c-3.1,0-5.1-0.6-5.9-1.7
			c-0.8-1.1-1.3-3.7-1.3-7.8c0-3.2,0.1-5.2,0.3-6.1s0.7-1.6,1.6-2.2c1.1-0.8,3.3-1.1,6.8-1.1c2.4,0,4,0.4,4.8,1.1s1.2,2.2,1.2,4.3
			l0,0.5h-2.1l0-0.6c0-1.5-0.2-2.5-0.7-2.9s-1.6-0.6-3.3-0.6c-3,0-4.8,0.2-5.5,0.7s-1,1.9-1,4.1c0,5.2,0.2,8.3,0.7,9.2
			c0.4,0.9,2,1.3,4.6,1.3c2.5,0,4-0.2,4.6-0.6c0.6-0.4,0.9-1.4,0.9-2.9L34.4,13.1z"/>
		<path class="st1" d="M45.1,0.6c3.5,0,5.7,0.5,6.6,1.5c0.9,1,1.3,3.6,1.3,7.7c0,4.4-0.4,7.1-1.3,8.2c-0.8,1-3.1,1.5-6.6,1.5
			c-3.6,0-5.8-0.5-6.6-1.5c-0.9-1-1.3-3.7-1.3-7.9V8.7l0-1.8c0-2.5,0.6-4.1,1.7-5C40,1,42.1,0.6,45.1,0.6z M45.1,2.3
			c-2.9,0-4.7,0.3-5.2,1C39.4,4,39.2,6.2,39.2,10c0,3.8,0.2,6.1,0.7,6.7c0.5,0.7,2.2,1,5.2,1c2.9,0,4.7-0.3,5.2-1
			c0.5-0.7,0.7-2.9,0.7-6.7V8.8l0-1.8c0-2-0.3-3.3-1-3.9C49.3,2.6,47.6,2.3,45.1,2.3z"/>
		<path class="st1" d="M61.6,0.6c3.5,0,5.7,0.5,6.6,1.5c0.9,1,1.3,3.6,1.3,7.7c0,4.4-0.4,7.1-1.3,8.2c-0.8,1-3.1,1.5-6.6,1.5
			C58,19.5,55.8,19,55,18c-0.9-1-1.3-3.7-1.3-7.9V8.7l0-1.8c0-2.5,0.6-4.1,1.7-5C56.5,1,58.6,0.6,61.6,0.6z M61.6,2.3
			c-2.9,0-4.7,0.3-5.2,1C55.9,4,55.7,6.2,55.7,10c0,3.8,0.2,6.1,0.7,6.7c0.5,0.7,2.2,1,5.2,1c2.9,0,4.7-0.3,5.2-1
			c0.5-0.7,0.7-2.9,0.7-6.7V8.8l0-1.8c0-2-0.3-3.3-1-3.9C65.8,2.6,64.1,2.3,61.6,2.3z"/>
		<path class="st1" d="M71.3,19.3V0.8h7.8h0.7c2.1,0,3.5,0.4,4.3,1.2c0.8,0.8,1.1,2.3,1.1,4.5c0,2.1-0.4,3.6-1.2,4.3
			c-0.8,0.8-2.3,1.2-4.5,1.2l-0.8,0h-5.4v7.3H71.3z M73.4,10.2h5c2.1,0,3.4-0.2,4-0.6c0.6-0.4,0.9-1.4,0.9-2.9
			c0-1.8-0.2-2.9-0.6-3.4s-1.3-0.7-2.8-0.7l-0.8,0h-5.6L73.4,10.2L73.4,10.2z"/>
		<path class="st1" d="M99.9,5.8h-2.1c0-1.5-0.2-2.4-0.7-2.8c-0.5-0.4-1.7-0.6-3.5-0.6c-2.2,0-3.6,0.2-4.2,0.6c-0.6,0.4-1,1.2-1,2.6
			c0,1.5,0.2,2.4,0.7,2.7c0.5,0.3,2,0.5,4.4,0.7c2.9,0.1,4.7,0.5,5.5,1.1c0.8,0.6,1.2,2,1.2,4.1c0,2.3-0.5,3.8-1.4,4.4
			c-0.9,0.7-2.9,1-6,1c-2.7,0-4.5-0.3-5.3-1c-0.9-0.7-1.3-2-1.3-4.1l0-0.8h2.1V14c0,1.7,0.3,2.7,0.8,3.1c0.5,0.4,1.8,0.6,3.9,0.6
			c2.4,0,3.9-0.2,4.4-0.6c0.6-0.4,0.8-1.5,0.8-3.2c0-1.1-0.2-1.9-0.6-2.3c-0.4-0.4-1.2-0.6-2.4-0.7l-2.2-0.1l-2.1-0.1
			c-3.1-0.2-4.7-1.8-4.7-4.9c0-2.1,0.5-3.5,1.4-4.2c0.9-0.7,2.7-1.1,5.5-1.1c2.8,0,4.6,0.3,5.4,1C99.5,2.2,99.9,3.6,99.9,5.8z"/>
	</g>
</g>
</svg>
